<svg preserveAspectRatio="none" overflow="visible" style="display: block;" width="45.5715" height="13.0564" viewBox="0 0 45.5715 13.0564" fill="none" xmlns="http://www.w3.org/2000/svg">
<g id="mate">
<path id="Vector" d="M37.597 9.50866C37.8208 10.02 38.1564 10.4196 38.6198 10.6913C39.0673 10.9629 39.6426 11.1068 40.3298 11.1068C40.969 11.1068 41.5443 10.9949 42.0877 10.7871C42.5991 10.5794 43.0785 10.2118 43.51 9.70043L45.1241 10.931C44.5647 11.6022 43.8935 12.1136 43.1265 12.4971C42.3434 12.8647 41.4964 13.0564 40.5855 13.0564C39.7864 13.0564 39.0513 12.9286 38.3801 12.7049C37.6929 12.4492 37.1016 12.1136 36.6062 11.6821C36.0948 11.2346 35.6953 10.6913 35.4076 10.052C35.104 9.42875 34.9602 8.72559 34.9602 7.92653C34.9602 7.15945 35.088 6.45628 35.3757 5.81704C35.6473 5.19378 36.0309 4.65043 36.5103 4.18698C36.9897 3.73951 37.5491 3.38792 38.2203 3.13223C38.8595 2.89251 39.5787 2.76466 40.3458 2.76466C41.0809 2.76466 41.7681 2.89251 42.4073 3.13223C43.0146 3.38792 43.5579 3.72353 44.0214 4.13903C44.4689 4.5865 44.8364 5.09789 45.1241 5.68919C45.3798 6.29647 45.5396 6.96767 45.5715 7.67084L37.597 9.50866ZM40.4576 4.71435C39.4988 4.71435 38.7636 4.98603 38.2203 5.49742C37.6609 6.04077 37.3573 6.75992 37.3094 7.65486L43.0625 6.28049C42.7749 5.73713 42.4233 5.33761 41.9758 5.08191C41.5283 4.8422 41.017 4.71435 40.4576 4.71435Z" fill="#3F6051"/>
<path id="Vector_2" d="M31.7509 3.26015H34.0842V5.20984H31.7509V9.6206C31.7509 9.94022 31.8309 10.1959 32.0066 10.3557C32.1665 10.5475 32.4062 10.6274 32.7578 10.6274H34.244V12.5771H31.703C31.3514 12.5771 31.0318 12.5132 30.7441 12.4173C30.4245 12.3054 30.1688 12.1456 29.9451 11.9538C29.7214 11.7461 29.5456 11.5064 29.4177 11.2187C29.2899 10.9151 29.2259 10.5954 29.2259 10.2119V5.20984H27.3402V3.26015H29.2259V2.35973e-05H31.7509V3.26015Z" fill="#3F6051"/>
<path id="Vector_3" d="M23.9421 3.26008H26.1475V12.577H24.006L23.7024 11.3465C23.5106 11.5862 23.2709 11.8099 22.9992 12.0177C22.7116 12.2095 22.4239 12.3693 22.1043 12.5131C21.7687 12.6409 21.4331 12.7368 21.0815 12.8167C20.7299 12.8807 20.3783 12.8966 20.0427 12.8966C19.3875 12.8807 18.7802 12.7528 18.2049 12.4971C17.6136 12.2414 17.1022 11.8898 16.6707 11.4583C16.2233 11.0109 15.8717 10.4995 15.616 9.8922C15.3603 9.30091 15.2324 8.64568 15.2324 7.94252C15.2324 7.22337 15.3603 6.55217 15.632 5.92891C15.8877 5.32163 16.2552 4.79426 16.7027 4.34679C17.1502 3.9153 17.6616 3.56372 18.2369 3.30802C18.8122 3.06831 19.4035 2.94046 20.0267 2.94046C20.7938 2.94046 21.481 3.06831 22.1203 3.324C22.7435 3.5797 23.2549 3.94726 23.6544 4.41071L23.9421 3.26008ZM20.5381 10.947C20.9217 10.947 21.2733 10.867 21.6248 10.7392C21.9604 10.6113 22.2641 10.4036 22.5198 10.1319C22.7595 9.87622 22.9513 9.57258 23.1111 9.18904C23.2389 8.82148 23.3188 8.40597 23.3188 7.94252C23.3188 7.46309 23.2389 7.04758 23.1111 6.66404C22.9513 6.29647 22.7595 5.97685 22.5198 5.70518C22.2641 5.44948 21.9604 5.25771 21.6248 5.11388C21.2733 4.98603 20.9217 4.90613 20.5381 4.90613C20.1546 4.90613 19.787 4.98603 19.4514 5.11388C19.0998 5.25771 18.8122 5.44948 18.5725 5.70518C18.3168 5.97685 18.109 6.29647 17.9812 6.66404C17.8214 7.04758 17.7574 7.46309 17.7574 7.94252C17.7574 8.40597 17.8214 8.82148 17.9812 9.18904C18.109 9.57258 18.3168 9.87622 18.5725 10.1319C18.8122 10.4036 19.0998 10.6113 19.4514 10.7392C19.787 10.867 20.1546 10.947 20.5381 10.947Z" fill="#3F6051"/>
<path id="Vector_4" d="M8.19829 12.577H5.67329V6.91973C5.67329 6.696 5.64133 6.47227 5.59339 6.21657C5.52946 5.99283 5.43358 5.7691 5.30573 5.56135C5.17788 5.36957 5.01807 5.20976 4.8263 5.08192C4.63453 4.97005 4.41079 4.90613 4.1551 4.90613C3.93136 4.90613 3.73959 4.97005 3.5638 5.08192C3.37203 5.20976 3.21222 5.35359 3.08437 5.52938C2.92456 5.72116 2.81269 5.94489 2.7168 6.16863C2.62092 6.40834 2.55699 6.63208 2.52503 6.85581V12.577H2.97552e-05V3.26008H2.20541L2.41316 3.97923C2.76475 3.59568 3.18025 3.324 3.65968 3.16419C4.13911 3.03635 4.60256 2.95644 5.06601 2.94046C5.51348 2.94046 5.96095 3.05233 6.39244 3.27606C6.80795 3.51578 7.15953 3.85138 7.47915 4.26688C7.67092 3.99521 7.89465 3.77147 8.15035 3.5797C8.39007 3.41989 8.64576 3.27606 8.91744 3.18018C9.17314 3.08429 9.4608 3.02036 9.76444 2.9884C10.0521 2.95644 10.3717 2.94046 10.6913 2.94046C11.1068 2.94046 11.5223 3.03635 11.9059 3.21214C12.2894 3.40391 12.625 3.67559 12.9287 4.01119C13.2163 4.36277 13.4401 4.7623 13.6159 5.24173C13.7757 5.73714 13.8716 6.28049 13.8716 6.85581V12.577H11.3466V6.91973C11.3466 6.696 11.3146 6.47227 11.2667 6.21657C11.2027 5.99283 11.1068 5.7691 10.995 5.56135C10.8671 5.36957 10.7073 5.20976 10.5155 5.08192C10.3078 4.97005 10.0681 4.90613 9.7964 4.90613C9.38089 4.90613 9.02931 5.06594 8.74165 5.38556C8.42203 5.70518 8.24624 6.15264 8.19829 6.71198V12.577Z" fill="#3F6051"/>
</g>
</svg>
