<svg width="24" height="24" viewBox="0 0 24 24" fill="none" xmlns="http://www.w3.org/2000/svg">
<g clip-path="url(#clip0_308_5339)">
<path d="M19.0001 0H14.0001C13.7349 0 13.4805 0.105357 13.293 0.292893C13.1054 0.48043 13.0001 0.734784 13.0001 1C13.0001 1.26522 13.1054 1.51957 13.293 1.70711C13.4805 1.89464 13.7349 2 14.0001 2H19.0001C19.4456 2.00172 19.8849 2.10429 20.2851 2.3L0.293081 22.293C0.197571 22.3852 0.121389 22.4956 0.0689798 22.6176C0.0165708 22.7396 -0.0110155 22.8708 -0.0121693 23.0036C-0.0133231 23.1364 0.0119786 23.2681 0.0622595 23.391C0.11254 23.5139 0.186794 23.6255 0.280686 23.7194C0.374579 23.8133 0.486231 23.8875 0.609127 23.9378C0.732024 23.9881 0.863703 24.0134 0.996482 24.0123C1.12926 24.0111 1.26048 23.9835 1.38249 23.9311C1.50449 23.8787 1.61483 23.8025 1.70708 23.707L21.7001 3.715C21.8958 4.1152 21.9984 4.55451 22.0001 5V10C22.0001 10.2652 22.1054 10.5196 22.293 10.7071C22.4805 10.8946 22.7349 11 23.0001 11C23.2653 11 23.5197 10.8946 23.7072 10.7071C23.8947 10.5196 24.0001 10.2652 24.0001 10V5C23.9985 3.67441 23.4712 2.40356 22.5339 1.46622C21.5965 0.528882 20.3257 0.00158786 19.0001 0V0Z" fill="#374957"/>
<path d="M5.99988 10C6.791 10 7.56436 9.76541 8.22216 9.32588C8.87996 8.88635 9.39265 8.26164 9.6954 7.53074C9.99815 6.79983 10.0774 5.99556 9.92302 5.21964C9.76868 4.44372 9.38772 3.73098 8.82831 3.17157C8.2689 2.61216 7.55616 2.2312 6.78024 2.07686C6.00431 1.92252 5.20005 2.00173 4.46914 2.30448C3.73824 2.60723 3.11353 3.11992 2.674 3.77772C2.23447 4.43552 1.99988 5.20888 1.99988 6C1.99988 7.06087 2.42131 8.07828 3.17145 8.82843C3.9216 9.57857 4.93901 10 5.99988 10ZM5.99988 4C6.39544 4 6.78212 4.1173 7.11102 4.33706C7.43992 4.55683 7.69626 4.86918 7.84764 5.23463C7.99901 5.60009 8.03862 6.00222 7.96145 6.39018C7.88428 6.77814 7.6938 7.13451 7.41409 7.41422C7.13439 7.69392 6.77802 7.8844 6.39006 7.96157C6.0021 8.03874 5.59996 7.99914 5.23451 7.84776C4.86906 7.69639 4.5567 7.44004 4.33694 7.11114C4.11718 6.78224 3.99988 6.39556 3.99988 6C3.99988 5.46957 4.21059 4.96086 4.58566 4.58579C4.96074 4.21072 5.46944 4 5.99988 4Z" fill="#374957"/>
<path d="M18.0001 14.0002C17.209 14.0002 16.4356 14.2348 15.7778 14.6744C15.12 15.1139 14.6074 15.7386 14.3046 16.4695C14.0019 17.2004 13.9226 18.0047 14.077 18.7806C14.2313 19.5565 14.6123 20.2693 15.1717 20.8287C15.7311 21.3881 16.4438 21.769 17.2198 21.9234C17.9957 22.0777 18.8 21.9985 19.5309 21.6958C20.2618 21.393 20.8865 20.8803 21.326 20.2225C21.7655 19.5647 22.0001 18.7914 22.0001 18.0002C22.0001 16.9394 21.5787 15.922 20.8286 15.1718C20.0784 14.4217 19.061 14.0002 18.0001 14.0002ZM18.0001 20.0002C17.6046 20.0002 17.2179 19.8829 16.889 19.6632C16.5601 19.4434 16.3037 19.1311 16.1524 18.7656C16.001 18.4002 15.9614 17.998 16.0386 17.6101C16.1157 17.2221 16.3062 16.8657 16.5859 16.586C16.8656 16.3063 17.222 16.1158 17.6099 16.0387C17.9979 15.9615 18.4 16.0011 18.7655 16.1525C19.1309 16.3039 19.4433 16.5602 19.6631 16.8891C19.8828 17.218 20.0001 17.6047 20.0001 18.0002C20.0001 18.5307 19.7894 19.0394 19.4143 19.4145C19.0393 19.7895 18.5306 20.0002 18.0001 20.0002Z" fill="#374957"/>
</g>
<defs>
<clipPath id="clip0_308_5339">
<rect width="24" height="24" fill="white"/>
</clipPath>
</defs>
</svg>
