<svg width="24" height="24" viewBox="0 0 24 24" fill="none" xmlns="http://www.w3.org/2000/svg">
<path d="M20.4401 16.8543L18.9591 14.6333C19.2017 14.4724 19.4101 14.2653 19.5725 14.0238C19.7349 13.7822 19.8481 13.511 19.9056 13.2257C19.9631 12.9404 19.9638 12.6465 19.9076 12.3609C19.8514 12.0753 19.7394 11.8036 19.5781 11.5613L17.4871 8.42635C17.6702 8.25963 17.8243 8.06362 17.9431 7.84635C18.1332 7.49748 18.2257 7.10383 18.2109 6.70682C18.1961 6.30981 18.0746 5.92412 17.8591 5.59035C17.8341 5.55256 17.8071 5.51617 17.7781 5.48135L13.6781 0.699361C13.4531 0.476485 13.1859 0.300747 12.8922 0.182444C12.5984 0.0641402 12.284 0.00564991 11.9674 0.0103996C11.6507 0.0151492 11.3382 0.0830433 11.0482 0.210104C10.7581 0.337165 10.4963 0.520837 10.2781 0.75036L6.20611 5.47736C6.17652 5.51098 6.14944 5.54675 6.12511 5.58435C5.83764 6.02703 5.71794 6.55791 5.78763 7.08111C5.85732 7.60431 6.11179 8.08535 6.50511 8.43735L4.42211 11.5613C4.26079 11.8036 4.14884 12.0753 4.09264 12.3609C4.03644 12.6465 4.03711 12.9404 4.09461 13.2257C4.1521 13.511 4.26529 13.7822 4.4277 14.0238C4.59011 14.2653 4.79856 14.4724 5.04111 14.6333L3.56011 16.8543C3.22781 17.3526 3.03696 17.9317 3.00792 18.5299C2.97888 19.1281 3.11273 19.7229 3.39521 20.251C3.67768 20.7791 4.09819 21.2207 4.61188 21.5286C5.12558 21.8365 5.71321 21.9992 6.31211 21.9993H11.0001V22.9993C11.0001 23.2645 11.1055 23.5189 11.293 23.7064C11.4805 23.894 11.7349 23.9993 12.0001 23.9993C12.2653 23.9993 12.5197 23.894 12.7072 23.7064C12.8947 23.5189 13.0001 23.2645 13.0001 22.9993V21.9993H17.6871C18.2861 21.9993 18.8738 21.8368 19.3877 21.529C19.9015 21.2211 20.3222 20.7796 20.6048 20.2515C20.8874 19.7234 21.0213 19.1284 20.9923 18.5301C20.9633 17.9319 20.7725 17.3527 20.4401 16.8543ZM18.8401 19.3083C18.7298 19.5182 18.5639 19.6937 18.3605 19.8156C18.1572 19.9375 17.9242 20.001 17.6871 19.9993H6.31211C6.07529 19.9991 5.84297 19.9347 5.6399 19.8128C5.43683 19.691 5.27061 19.5164 5.15896 19.3075C5.0473 19.0987 4.99439 18.8635 5.00587 18.6269C5.01734 18.3904 5.09276 18.1614 5.22411 17.9643L7.50011 14.5543C7.60068 14.4036 7.6584 14.2284 7.6671 14.0474C7.67581 13.8664 7.63516 13.6864 7.54951 13.5267C7.46386 13.367 7.33643 13.2336 7.18083 13.1407C7.02523 13.0478 6.84732 12.999 6.66611 12.9993H6.26111C6.22272 13.0007 6.18476 12.9909 6.15178 12.9712C6.1188 12.9515 6.09218 12.9228 6.07511 12.8883C6.05583 12.855 6.04662 12.8167 6.04857 12.7782C6.05052 12.7397 6.06356 12.7026 6.08611 12.6713L8.83111 8.55435C8.9301 8.40281 8.9861 8.22725 8.99314 8.04638C9.00019 7.86552 8.95801 7.68613 8.87111 7.52735C8.78342 7.36745 8.65435 7.23407 8.49742 7.14118C8.34049 7.04829 8.16147 6.9993 7.97911 6.99935C7.94082 7.00076 7.90294 6.99114 7.86997 6.97164C7.837 6.95214 7.81032 6.92358 7.79311 6.88935C7.77763 6.86256 7.76858 6.83253 7.76667 6.80165C7.76476 6.77076 7.77004 6.73985 7.78211 6.71135L11.7441 2.11136C11.7709 2.07712 11.8043 2.04858 11.8422 2.02738C11.8802 2.00619 11.922 1.99278 11.9652 1.98794C12.0084 1.9831 12.0521 1.98692 12.0938 1.99919C12.1355 2.01145 12.1744 2.0319 12.2081 2.05936L16.2001 6.71235C16.2122 6.74085 16.2175 6.77176 16.2155 6.80265C16.2136 6.83353 16.2046 6.86356 16.1891 6.89035C16.1715 6.92487 16.1443 6.95355 16.1108 6.9729C16.0772 6.99224 16.0388 7.00144 16.0001 6.99935C15.8191 6.99933 15.6414 7.04845 15.4861 7.14148C15.3308 7.23451 15.2036 7.36796 15.1182 7.52759C15.0328 7.68722 14.9924 7.86704 15.0011 8.04787C15.0099 8.2287 15.0676 8.40375 15.1681 8.55435L17.9131 12.6713C17.9357 12.7026 17.9487 12.7397 17.9506 12.7782C17.9526 12.8167 17.9434 12.855 17.9241 12.8883C17.907 12.9228 17.8804 12.9515 17.8474 12.9712C17.8145 12.9909 17.7765 13.0007 17.7381 12.9993H17.3331C17.1521 12.9993 16.9744 13.0484 16.8191 13.1415C16.6638 13.2345 16.5366 13.3679 16.4512 13.5276C16.3658 13.6872 16.3254 13.867 16.3341 14.0479C16.3429 14.2287 16.4006 14.4037 16.5011 14.5543L18.7751 17.9643C18.9088 18.1606 18.9858 18.3899 18.9974 18.627C19.009 18.8642 18.955 19.1 18.8411 19.3083H18.8401Z" fill="#374957"/>
<path d="M9.00012 17.9994C9.5524 17.9994 10.0001 17.5517 10.0001 16.9994C10.0001 16.4471 9.5524 15.9994 9.00012 15.9994C8.44784 15.9994 8.00012 16.4471 8.00012 16.9994C8.00012 17.5517 8.44784 17.9994 9.00012 17.9994Z" fill="#374957"/>
<path d="M13.9999 17.9994C14.5522 17.9994 14.9999 17.5517 14.9999 16.9994C14.9999 16.4471 14.5522 15.9994 13.9999 15.9994C13.4476 15.9994 12.9999 16.4471 12.9999 16.9994C12.9999 17.5517 13.4476 17.9994 13.9999 17.9994Z" fill="#374957"/>
<path d="M10.9999 14C11.5522 14 11.9999 13.5523 11.9999 13C11.9999 12.4477 11.5522 12 10.9999 12C10.4476 12 9.99988 12.4477 9.99988 13C9.99988 13.5523 10.4476 14 10.9999 14Z" fill="#374957"/>
<path d="M13 11C13.5523 11 14 10.5523 14 10C14 9.44771 13.5523 9 13 9C12.4477 9 12 9.44771 12 10C12 10.5523 12.4477 11 13 11Z" fill="#374957"/>
<path d="M10.9999 8C11.5522 8 11.9999 7.55228 11.9999 7C11.9999 6.44771 11.5522 6 10.9999 6C10.4476 6 9.99988 6.44771 9.99988 7C9.99988 7.55228 10.4476 8 10.9999 8Z" fill="#374957"/>
</svg>
