<svg width="24" height="24" viewBox="0 0 24 24" fill="none" xmlns="http://www.w3.org/2000/svg">
<g clip-path="url(#clip0_308_5420)">
<path d="M15.0001 12.0005C15.0001 12.2657 14.8948 12.5201 14.7072 12.7076C14.5197 12.8952 14.2653 13.0005 14.0001 13.0005H13.0001V17.5005C13.0001 17.995 12.8535 18.4783 12.5788 18.8894C12.3041 19.3006 11.9136 19.621 11.4568 19.8102C11 19.9994 10.4973 20.0489 10.0124 19.9525C9.52744 19.856 9.08199 19.6179 8.73236 19.2683C8.38272 18.9186 8.14462 18.4732 8.04816 17.9882C7.9517 17.5033 8.0012 17.0006 8.19042 16.5438C8.37964 16.087 8.70007 15.6965 9.1112 15.4218C9.52232 15.1471 10.0057 15.0005 10.5001 15.0005C10.668 15.0009 10.8355 15.0176 11.0001 15.0505V13.0005C11.0001 12.4701 11.2108 11.9614 11.5859 11.5863C11.961 11.2112 12.4697 11.0005 13.0001 11.0005H14.0001C14.2653 11.0005 14.5197 11.1059 14.7072 11.2934C14.8948 11.4809 15.0001 11.7353 15.0001 12.0005ZM22.0001 10.4855V19.0005C21.9985 20.3261 21.4712 21.597 20.5339 22.5343C19.5966 23.4716 18.3257 23.9989 17.0001 24.0005H7.00012C5.67453 23.9989 4.40368 23.4716 3.46634 22.5343C2.529 21.597 2.00171 20.3261 2.00012 19.0005V5.00051C2.00171 3.67492 2.529 2.40407 3.46634 1.46673C4.40368 0.529394 5.67453 0.00209985 7.00012 0.000511993H11.5151C12.4348 -0.00188951 13.3459 0.178147 14.1956 0.530201C15.0452 0.882255 15.8166 1.39934 16.4651 2.05151L19.9491 5.53551C20.6013 6.184 21.1184 6.95541 21.4704 7.80508C21.8225 8.65474 22.0025 9.5658 22.0001 10.4855ZM15.0511 3.46551C14.7366 3.16014 14.3832 2.89754 14.0001 2.68451V7.00051C14.0001 7.26573 14.1055 7.52008 14.293 7.70762C14.4806 7.89515 14.7349 8.00051 15.0001 8.00051H19.3161C19.1031 7.61739 18.8405 7.26401 18.5351 6.94951L15.0511 3.46551ZM20.0001 10.4855C20.0001 10.3205 19.9681 10.1625 19.9531 10.0005H15.0001C14.2045 10.0005 13.4414 9.68444 12.8788 9.12183C12.3162 8.55922 12.0001 7.79616 12.0001 7.00051V2.04751C11.8381 2.03251 11.6801 2.00051 11.5151 2.00051H7.00012C6.20447 2.00051 5.44141 2.31658 4.8788 2.87919C4.31619 3.4418 4.00012 4.20486 4.00012 5.00051V19.0005C4.00012 19.7962 4.31619 20.5592 4.8788 21.1218C5.44141 21.6844 6.20447 22.0005 7.00012 22.0005H17.0001C17.7958 22.0005 18.5588 21.6844 19.1214 21.1218C19.6841 20.5592 20.0001 19.7962 20.0001 19.0005V10.4855Z" fill="#374957"/>
</g>
<defs>
<clipPath id="clip0_308_5420">
<rect width="24" height="24" fill="white"/>
</clipPath>
</defs>
</svg>
