<svg width="24" height="24" viewBox="0 0 24 24" fill="none" xmlns="http://www.w3.org/2000/svg">
<g clip-path="url(#clip0_308_5321)">
<path d="M22.9422 6.83681L20.7602 4.65381L21.7072 3.70681C21.8027 3.61456 21.8789 3.50421 21.9313 3.38221C21.9837 3.26021 22.0113 3.12899 22.0125 2.99621C22.0136 2.86343 21.9883 2.73175 21.938 2.60885C21.8878 2.48596 21.8135 2.3743 21.7196 2.28041C21.6257 2.18652 21.5141 2.11226 21.3912 2.06198C21.2683 2.0117 21.1366 1.9864 21.0038 1.98756C20.871 1.98871 20.7398 2.0163 20.6178 2.0687C20.4958 2.12111 20.3855 2.1973 20.2932 2.29281L19.3462 3.23981L17.1632 1.05781C16.4752 0.402128 15.5612 0.036377 14.6107 0.036377C13.6603 0.036377 12.7463 0.402128 12.0582 1.05781C11.7228 1.39297 11.4567 1.79096 11.2751 2.22901C11.0936 2.66707 11.0001 3.13661 11.0001 3.61081C11.0001 4.085 11.0936 4.55454 11.2751 4.9926C11.4567 5.43066 11.7228 5.82864 12.0582 6.16381L14.2402 8.34581L8.34623 14.2398L6.16323 12.0578C5.47516 11.4021 4.56117 11.0364 3.61073 11.0364C2.66028 11.0364 1.74629 11.4021 1.05823 12.0578C0.722784 12.393 0.456681 12.791 0.275126 13.229C0.0935702 13.6671 0.00012207 14.1366 0.00012207 14.6108C0.00012207 15.085 0.0935702 15.5545 0.275126 15.9926C0.456681 16.4307 0.722784 16.8286 1.05823 17.1638L3.24023 19.3458L2.29323 20.2928C2.19772 20.3851 2.12153 20.4954 2.06912 20.6174C2.01672 20.7394 1.98913 20.8706 1.98798 21.0034C1.98682 21.1362 2.01212 21.2679 2.0624 21.3908C2.11268 21.5137 2.18694 21.6253 2.28083 21.7192C2.37472 21.8131 2.48638 21.8873 2.60927 21.9376C2.73217 21.9879 2.86385 22.0132 2.99663 22.0121C3.12941 22.0109 3.26063 21.9833 3.38263 21.9309C3.50463 21.8785 3.61498 21.8023 3.70723 21.7068L4.65423 20.7598L6.83723 22.9418C7.17237 23.2771 7.57029 23.5431 8.00826 23.7245C8.44623 23.906 8.91565 23.9994 9.38973 23.9994C9.8638 23.9994 10.3332 23.906 10.7712 23.7245C11.2092 23.5431 11.6071 23.2771 11.9422 22.9418C12.2776 22.6067 12.5437 22.2088 12.7253 21.7708C12.9068 21.3329 13.0002 20.8634 13.0002 20.3893C13.0002 19.9152 12.9068 19.4457 12.7253 19.0078C12.5437 18.5698 12.2776 18.1719 11.9422 17.8368L9.76023 15.6548L15.6602 9.75981L17.8422 11.9418C18.1774 12.2771 18.5753 12.5431 19.0133 12.7245C19.4512 12.906 19.9207 12.9994 20.3947 12.9994C20.8688 12.9994 21.3382 12.906 21.7762 12.7245C22.2142 12.5431 22.6121 12.2771 22.9472 11.9418C23.2826 11.6067 23.5487 11.2088 23.7303 10.7709C23.9118 10.3329 24.0052 9.86341 24.0052 9.38931C24.0052 8.9152 23.9118 8.44574 23.7303 8.00776C23.5487 7.56979 23.2826 7.17189 22.9472 6.83681H22.9422ZM11.0002 20.3898C11.0007 20.6013 10.9592 20.8107 10.8781 21.0061C10.7971 21.2014 10.6782 21.3787 10.5282 21.5278C10.2217 21.821 9.8139 21.9847 9.38973 21.9847C8.96555 21.9847 8.55774 21.821 8.25123 21.5278L2.47223 15.7488C2.17028 15.4469 2.00064 15.0373 2.00064 14.6103C2.00064 14.1833 2.17028 13.7738 2.47223 13.4718C2.77417 13.1699 3.18371 13.0002 3.61073 13.0002C4.03775 13.0002 4.44728 13.1699 4.74923 13.4718L10.5282 19.2508C10.6783 19.4 10.7973 19.5775 10.8783 19.773C10.9594 19.9685 11.0008 20.1782 11.0002 20.3898ZM21.5282 10.5278C21.2217 10.821 20.8139 10.9847 20.3897 10.9847C19.9656 10.9847 19.5577 10.821 19.2512 10.5278L13.4722 4.74881C13.3227 4.5993 13.2041 4.4218 13.1232 4.22646C13.0423 4.03111 13.0006 3.82174 13.0006 3.61031C13.0006 3.18329 13.1703 2.77375 13.4722 2.47181C13.7742 2.16986 14.1837 2.00022 14.6107 2.00022C15.0377 2.00022 15.4473 2.16986 15.7492 2.47181L21.5282 8.25081C21.6779 8.40024 21.7966 8.57771 21.8776 8.77307C21.9586 8.96842 22.0003 9.17783 22.0003 9.38931C22.0003 9.60078 21.9586 9.81019 21.8776 10.0055C21.7966 10.2009 21.6779 10.3784 21.5282 10.5278Z" fill="#374957"/>
</g>
<defs>
<clipPath id="clip0_308_5321">
<rect width="24" height="24" fill="white"/>
</clipPath>
</defs>
</svg>
