<svg width="24" height="24" viewBox="0 0 24 24" fill="none" xmlns="http://www.w3.org/2000/svg">
<g clip-path="url(#clip0_308_5257)">
<path d="M23.9999 9.72381V18.9998C23.9983 20.3254 23.471 21.5963 22.5337 22.5336C21.5963 23.4709 20.3255 23.9982 18.9999 23.9998H17.9999C17.7347 23.9998 17.4803 23.8945 17.2928 23.7069C17.1052 23.5194 16.9999 23.265 16.9999 22.9998C16.9999 22.7346 17.1052 22.4802 17.2928 22.2927C17.4803 22.1052 17.7347 21.9998 17.9999 21.9998H18.9999C19.7955 21.9998 20.5586 21.6837 21.1212 21.1211C21.6838 20.5585 21.9999 19.7955 21.9999 18.9998V9.72381C21.9999 9.23273 21.8794 8.74915 21.6489 8.31553C21.4184 7.8819 21.085 7.51149 20.6779 7.23681L13.6779 2.51381C13.1833 2.17662 12.5985 1.99627 11.9999 1.99627C11.4013 1.99627 10.8165 2.17662 10.3219 2.51381L3.32188 7.23681C2.9148 7.51149 2.58138 7.8819 2.35088 8.31553C2.12038 8.74915 1.99985 9.23273 1.99988 9.72381V18.9998C1.99988 19.7955 2.31595 20.5585 2.87856 21.1211C3.44117 21.6837 4.20423 21.9998 4.99988 21.9998H5.99988C6.2651 21.9998 6.51945 22.1052 6.70699 22.2927C6.89453 22.4802 6.99988 22.7346 6.99988 22.9998C6.99988 23.265 6.89453 23.5194 6.70699 23.7069C6.51945 23.8945 6.2651 23.9998 5.99988 23.9998H4.99988C3.67429 23.9982 2.40344 23.4709 1.4661 22.5336C0.528764 21.5963 0.0014697 20.3254 -0.000118153 18.9998V9.72381C-0.00114303 8.90553 0.198961 8.09954 0.582586 7.37676C0.966211 6.65397 1.5216 6.03655 2.19988 5.57881L9.19988 0.854814C10.0251 0.294767 10.9995 -0.00463867 11.9969 -0.00463867C12.9942 -0.00463867 13.9686 0.294767 14.7939 0.854814L21.7939 5.57881C22.4728 6.03631 23.0291 6.65353 23.4137 7.37626C23.7984 8.09898 23.9996 8.90511 23.9999 9.72381ZM18.9999 15.0068C19.0024 15.9263 18.8226 16.8372 18.4707 17.6867C18.1188 18.5362 17.6019 19.3075 16.9499 19.9558L13.4349 23.3938C13.0501 23.7664 12.5355 23.9747 11.9999 23.9747C11.4643 23.9747 10.9497 23.7664 10.5649 23.3938L7.05788 19.9638C6.24228 19.1508 5.63987 18.149 5.30407 17.0474C4.96827 15.9458 4.90944 14.7784 5.13281 13.6486C5.35618 12.5189 5.85484 11.4617 6.58459 10.5707C7.31433 9.67981 8.25262 8.98269 9.31627 8.54118C10.3799 8.09967 11.5361 7.92741 12.6822 8.03967C13.8284 8.15193 14.9291 8.54523 15.8869 9.18473C16.8447 9.82422 17.6299 10.6901 18.1729 11.7057C18.7159 12.7213 19 13.8552 18.9999 15.0068ZM16.9999 15.0068C16.9999 14.1846 16.7971 13.375 16.4096 12.6499C16.022 11.9247 15.4616 11.3064 14.7779 10.8495C14.0943 10.3927 13.3085 10.1115 12.4903 10.0309C11.672 9.95021 10.8465 10.0726 10.0868 10.3872C9.32714 10.7018 8.65678 11.1989 8.13511 11.8344C7.61344 12.47 7.25655 13.2244 7.09606 14.0308C6.93556 14.8372 6.97642 15.6708 7.21501 16.4576C7.4536 17.2445 7.88255 17.9603 8.46388 18.5418L11.9639 21.9638L15.5439 18.5338C16.0075 18.0712 16.3749 17.5214 16.6248 16.916C16.8747 16.3106 17.0022 15.6617 16.9999 15.0068ZM14.9999 14.9998C14.9999 15.5932 14.8239 16.1732 14.4943 16.6665C14.1646 17.1599 13.6961 17.5444 13.1479 17.7715C12.5998 17.9985 11.9966 18.0579 11.4146 17.9422C10.8327 17.8264 10.2981 17.5407 9.87856 17.1211C9.459 16.7016 9.17328 16.167 9.05753 15.5851C8.94177 15.0031 9.00118 14.3999 9.22824 13.8518C9.45531 13.3036 9.83982 12.8351 10.3332 12.5054C10.8265 12.1758 11.4065 11.9998 11.9999 11.9998C12.7955 11.9998 13.5586 12.3159 14.1212 12.8785C14.6838 13.4411 14.9999 14.2042 14.9999 14.9998Z" fill="#374957"/>
</g>
<defs>
<clipPath id="clip0_308_5257">
<rect width="24" height="24" fill="white"/>
</clipPath>
</defs>
</svg>
