<svg width="24" height="24" viewBox="0 0 24 24" fill="none" xmlns="http://www.w3.org/2000/svg">
<g clip-path="url(#clip0_308_5412)">
<path d="M11.692 22.9999C11.2979 23.0009 10.9076 22.9237 10.5435 22.7728C10.1794 22.6219 9.84889 22.4003 9.57104 22.1209L6.18404 18.6999C6.07735 18.6105 5.99049 18.4998 5.92904 18.3748C5.86759 18.2499 5.83289 18.1136 5.82717 17.9745C5.82145 17.8354 5.84483 17.6967 5.89581 17.5671C5.94679 17.4376 6.02426 17.3201 6.12325 17.2223C6.22224 17.1244 6.34057 17.0483 6.47067 16.9988C6.60077 16.9493 6.73977 16.9275 6.87878 16.9348C7.0178 16.9421 7.15375 16.9783 7.27795 17.0412C7.40215 17.104 7.51185 17.1922 7.60004 17.2999L10.984 20.7139C11.1745 20.8946 11.427 20.9953 11.6895 20.9953C11.9521 20.9953 12.2046 20.8946 12.395 20.7139L17.809 15.2999C17.9965 15.1122 18.2509 15.0067 18.5162 15.0067C18.7815 15.0066 19.0359 15.1118 19.2235 15.2994C19.4112 15.4869 19.5166 15.7412 19.5167 16.0065C19.5168 16.2718 19.4115 16.5262 19.224 16.7139L13.809 22.1279C13.5312 22.4058 13.2011 22.6259 12.8378 22.7756C12.4744 22.9253 12.085 23.0015 11.692 22.9999ZM7.00004 21.9999C7.00004 21.7346 6.89468 21.4803 6.70715 21.2927C6.51961 21.1052 6.26526 20.9999 6.00004 20.9999H5.68304C4.829 20.9835 4.00524 20.6806 3.34403 20.1398C2.68282 19.599 2.22252 18.8517 2.03704 18.0179C1.92838 17.3013 2.04695 16.5687 2.37608 15.923C2.70521 15.2773 3.22836 14.7509 3.87204 14.4179C4.33053 14.164 4.67067 13.7399 4.81888 13.2373C4.9671 12.7346 4.91147 12.1938 4.66404 11.7319C4.27575 10.9913 4.04653 10.1778 3.9911 9.34344C3.93566 8.50911 4.05522 7.6724 4.34212 6.88699C4.62902 6.10158 5.07692 5.3848 5.65708 4.78265C6.23725 4.18049 6.93687 3.70625 7.71107 3.39034C8.48526 3.07443 9.31695 2.92383 10.1528 2.9482C10.9886 2.97257 11.8101 3.17137 12.5646 3.53185C13.319 3.89233 13.9898 4.40654 14.5339 5.04147C15.078 5.67641 15.4834 6.41806 15.724 7.21886C15.8718 7.70164 16.1352 8.14102 16.4915 8.49881C16.8477 8.8566 17.2859 9.12197 17.768 9.27186C19.0747 9.6692 20.2057 10.5025 20.9723 11.6327C21.739 12.763 22.095 14.1219 21.981 15.4829C21.8659 16.6649 21.3934 17.7838 20.6265 18.6906C19.8595 19.5974 18.8346 20.2491 17.688 20.5589C17.4392 20.6441 17.2339 20.8239 17.1167 21.0594C16.9995 21.2949 16.9798 21.5671 17.0618 21.817C17.1439 22.0669 17.3212 22.2744 17.5552 22.3946C17.7892 22.5147 18.0611 22.5378 18.312 22.4589C19.9508 21.9912 21.393 21.0035 22.4215 19.6447C23.4499 18.2859 24.0087 16.6295 24.0137 14.9254C24.0186 13.2213 23.4695 11.5617 22.449 10.1969C21.4285 8.83211 19.992 7.83604 18.356 7.35886C18.1844 7.30538 18.0287 7.21029 17.9027 7.08205C17.7767 6.95381 17.6844 6.7964 17.634 6.62386C17.1049 4.92348 16.0235 3.44826 14.5612 2.43189C13.0989 1.41553 11.3393 0.916117 9.56115 1.01277C7.78296 1.10943 6.08786 1.79663 4.74436 2.96552C3.40085 4.1344 2.48576 5.71814 2.14404 7.46586C1.79259 9.23286 2.07589 11.0672 2.94404 12.6459C1.93181 13.1678 1.10878 13.9941 0.590873 15.0084C0.0729618 16.0227 -0.113747 17.1739 0.0570385 18.2999C0.31769 19.6077 1.01785 20.787 2.04126 21.6419C3.06466 22.4969 4.34972 22.9761 5.68304 22.9999H6.00004C6.26526 22.9999 6.51961 22.8945 6.70715 22.707C6.89468 22.5194 7.00004 22.2651 7.00004 21.9999Z" fill="#374957"/>
</g>
<defs>
<clipPath id="clip0_308_5412">
<rect width="24" height="24" fill="white"/>
</clipPath>
</defs>
</svg>
