<svg width="24" height="24" viewBox="0 0 24 24" fill="none" xmlns="http://www.w3.org/2000/svg">
<path d="M19 5.99976H13V2.99976C13 2.73454 12.8946 2.48019 12.7071 2.29265C12.5196 2.10511 12.2652 1.99976 12 1.99976C11.7348 1.99976 11.4804 2.10511 11.2929 2.29265C11.1054 2.48019 11 2.73454 11 2.99976V5.99976H5C3.67441 6.00134 2.40356 6.52864 1.46622 7.46598C0.528882 8.40331 0.00158786 9.67416 0 10.9998L0 14.9998C0.00158786 16.3254 0.528882 17.5962 1.46622 18.5335C2.40356 19.4709 3.67441 19.9982 5 19.9998H19C20.3256 19.9982 21.5964 19.4709 22.5338 18.5335C23.4711 17.5962 23.9984 16.3254 24 14.9998V10.9998C23.9984 9.67416 23.4711 8.40331 22.5338 7.46598C21.5964 6.52864 20.3256 6.00134 19 5.99976ZM22 14.9998C22 15.7954 21.6839 16.5585 21.1213 17.1211C20.5587 17.6837 19.7956 17.9998 19 17.9998H5C4.20435 17.9998 3.44129 17.6837 2.87868 17.1211C2.31607 16.5585 2 15.7954 2 14.9998V10.9998C2 10.2041 2.31607 9.44104 2.87868 8.87844C3.44129 8.31583 4.20435 7.99976 5 7.99976H19C19.7956 7.99976 20.5587 8.31583 21.1213 8.87844C21.6839 9.44104 22 10.2041 22 10.9998V14.9998Z" fill="#374957"/>
<path d="M15.0001 13.9998H9.00012C8.7349 13.9998 8.48055 14.1051 8.29301 14.2927C8.10548 14.4802 8.00012 14.7345 8.00012 14.9998C8.00012 15.265 8.10548 15.5193 8.29301 15.7069C8.48055 15.8944 8.7349 15.9998 9.00012 15.9998H15.0001C15.2653 15.9998 15.5197 15.8944 15.7072 15.7069C15.8948 15.5193 16.0001 15.265 16.0001 14.9998C16.0001 14.7345 15.8948 14.4802 15.7072 14.2927C15.5197 14.1051 15.2653 13.9998 15.0001 13.9998Z" fill="#374957"/>
<path d="M10 12.0002H11C11.2652 12.0002 11.5196 11.8949 11.7071 11.7073C11.8946 11.5198 12 11.2655 12 11.0002C12 10.735 11.8946 10.4807 11.7071 10.2931C11.5196 10.1056 11.2652 10.0002 11 10.0002H10C9.73478 10.0002 9.48043 10.1056 9.29289 10.2931C9.10536 10.4807 9 10.735 9 11.0002C9 11.2655 9.10536 11.5198 9.29289 11.7073C9.48043 11.8949 9.73478 12.0002 10 12.0002Z" fill="#374957"/>
<path d="M19.0001 10.0002H15.0001C14.7349 10.0002 14.4806 10.1056 14.293 10.2931C14.1055 10.4807 14.0001 10.735 14.0001 11.0002C14.0001 11.2655 14.1055 11.5198 14.293 11.7073C14.4806 11.8949 14.7349 12.0002 15.0001 12.0002H19.0001C19.2653 12.0002 19.5197 11.8949 19.7072 11.7073C19.8948 11.5198 20.0001 11.2655 20.0001 11.0002C20.0001 10.735 19.8948 10.4807 19.7072 10.2931C19.5197 10.1056 19.2653 10.0002 19.0001 10.0002Z" fill="#374957"/>
<path d="M6.00012 10.0002H5.00012C4.73491 10.0002 4.48055 10.1056 4.29302 10.2931C4.10548 10.4807 4.00012 10.735 4.00012 11.0002C4.00012 11.2655 4.10548 11.5198 4.29302 11.7073C4.48055 11.8949 4.73491 12.0002 5.00012 12.0002H6.00012C6.26534 12.0002 6.51969 11.8949 6.70723 11.7073C6.89477 11.5198 7.00012 11.2655 7.00012 11.0002C7.00012 10.735 6.89477 10.4807 6.70723 10.2931C6.51969 10.1056 6.26534 10.0002 6.00012 10.0002Z" fill="#374957"/>
<path d="M5.00012 15.9998C5.5524 15.9998 6.00012 15.552 6.00012 14.9998C6.00012 14.4475 5.5524 13.9998 5.00012 13.9998C4.44784 13.9998 4.00012 14.4475 4.00012 14.9998C4.00012 15.552 4.44784 15.9998 5.00012 15.9998Z" fill="#374957"/>
<path d="M19 15.9998C19.5523 15.9998 20 15.552 20 14.9998C20 14.4475 19.5523 13.9998 19 13.9998C18.4477 13.9998 18 14.4475 18 14.9998C18 15.552 18.4477 15.9998 19 15.9998Z" fill="#374957"/>
</svg>
