<svg width="24" height="24" viewBox="0 0 24 24" fill="none" xmlns="http://www.w3.org/2000/svg">
<g clip-path="url(#clip0_308_5398)">
<path d="M14.9568 10.3555C14.9579 10.6999 15.2374 10.9785 15.5818 10.9785C15.5818 10.9785 16.6538 10.9785 17.0678 10.9665C18.5998 10.9405 19.6998 9.60851 19.6998 7.80054C19.6998 5.90056 18.6198 4.62256 17.0138 4.62256H15.5708C15.2253 4.62368 14.9458 4.90404 14.9458 5.24956L14.9568 10.3555ZM17.0178 5.87248C18.0768 5.87248 18.4538 6.87246 18.4538 7.8005C18.4538 8.72853 18.0198 9.70048 17.0488 9.71651C16.8488 9.71651 16.5109 9.7235 16.2049 9.72551L16.1998 5.87253L17.0178 5.87248Z" fill="#374957"/>
<path d="M12.122 7.2555C11.849 7.1625 11.566 7.1115 11.287 7.03851C11.0656 6.99384 10.8604 6.8902 10.693 6.73851C10.5259 6.57998 10.4665 6.33853 10.541 6.12051C10.6358 5.93264 10.8222 5.80818 11.032 5.79253C11.2383 5.77968 11.4451 5.81001 11.639 5.88154C11.9181 5.96864 12.1918 6.07181 12.459 6.19054C12.753 6.31954 13.1 6.39656 13.337 6.11653C13.5125 5.90615 13.5256 5.60432 13.369 5.37951C13.2655 5.22867 13.1255 5.10656 12.962 5.02453C12.23 4.59473 11.3564 4.47553 10.536 4.69354C10.1026 4.8307 9.73648 5.12545 9.50998 5.51953C9.40376 5.70647 9.33354 5.91168 9.30298 6.12454C9.2472 6.50737 9.33021 6.89756 9.53698 7.22456C9.77033 7.56618 10.1072 7.82381 10.498 7.95956C10.907 8.12756 11.316 8.29054 11.731 8.44256C11.9094 8.49923 12.0738 8.59331 12.213 8.71856C12.3688 8.86743 12.4266 9.09192 12.362 9.29756C12.2777 9.49458 12.1103 9.64401 11.905 9.70556C11.5928 9.82293 11.2508 9.83522 10.931 9.74057C10.6198 9.62793 10.3322 9.45839 10.083 9.24056C10.057 9.21956 9.97198 9.15558 9.956 9.14057C9.72298 8.97398 9.40465 8.99531 9.19601 9.19158C8.94031 9.42347 8.921 9.81872 9.15284 10.0744C9.15289 10.0745 9.15293 10.0745 9.15298 10.0746C9.74961 10.7081 10.5828 11.0649 11.453 11.0596C12.4843 11.1049 13.4007 10.4069 13.631 9.40059C13.7281 8.79164 13.5006 8.17617 13.031 7.77661C12.7655 7.54439 12.4565 7.36729 12.122 7.2555Z" fill="#374957"/>
<path d="M4.12097 5.16864V10.4306C4.12097 10.7758 4.40082 11.0556 4.74596 11.0556C5.0911 11.0556 5.37094 10.7758 5.37094 10.4306V8.76765H6.21094C7.37626 8.76765 8.32093 7.82298 8.32093 6.65767C8.32093 5.49236 7.37626 4.54769 6.21094 4.54769L6.20494 4.5437H4.73996C4.69754 4.54445 4.47385 4.55265 4.29699 4.73612C4.12782 4.91162 4.1213 5.1234 4.12097 5.16864ZM6.20494 7.51365H5.37296L5.36696 5.79367H6.20494C6.67993 5.79344 7.06515 6.17828 7.06538 6.65326C7.06562 7.12825 6.68077 7.51347 6.20579 7.5137C6.20555 7.51365 6.20523 7.51365 6.20494 7.51365Z" fill="#374957"/>
<path d="M19 0H5.00002C2.23997 0.00332812 0.00332812 2.23997 0 5.00002V19C0.00332812 21.76 2.23997 23.9967 5.00002 24H16.343C17.6699 24.0038 18.9432 23.4766 19.879 22.536L22.535 19.878C23.4757 18.9426 24.0033 17.6697 24 16.343V5.00002C23.9967 2.23997 21.76 0.00332812 19 0ZM2.00002 19V5.00002C2.00002 3.34317 3.34317 2.00002 5.00002 2.00002H19C20.6569 2.00002 22 3.34317 22 5.00002V15H18C16.3432 15 15 16.3432 15 18V22H5.00002C3.34312 22 2.00002 20.6569 2.00002 19ZM18.465 21.122C18.063 21.523 17.5547 21.8006 17 21.922V18C17 17.4477 17.4477 17 18 17H21.925C21.8013 17.5535 21.524 18.0609 21.125 18.464L18.465 21.122Z" fill="#374957"/>
</g>
<defs>
<clipPath id="clip0_308_5398">
<rect width="24" height="24" fill="white"/>
</clipPath>
</defs>
</svg>
