<svg width="24" height="24" viewBox="0 0 24 24" fill="none" xmlns="http://www.w3.org/2000/svg">
<g clip-path="url(#clip0_308_5359)">
<path d="M15.0081 23.9999C14.4539 24.0008 13.9102 23.8484 13.4371 23.5597C12.9639 23.271 12.5798 22.8572 12.3271 22.3639L9.20012 15.6599L5.65812 18.7529C5.5135 18.8793 5.33555 18.9613 5.14553 18.9892C4.95551 19.0172 4.76148 18.9898 4.58661 18.9104C4.41174 18.8309 4.26344 18.7028 4.15944 18.5414C4.05543 18.3799 4.00013 18.1919 4.00012 17.9999V2.97988C4.00009 2.40199 4.16697 1.8364 4.4807 1.35108C4.79443 0.86577 5.24165 0.481396 5.76859 0.244169C6.29554 0.00694086 6.8798 -0.0730434 7.45112 0.0138311C8.02244 0.100706 8.55651 0.350741 8.98912 0.73388L19.6891 10.9719C19.828 11.1045 19.9257 11.2743 19.9706 11.4609C20.0156 11.6476 20.0058 11.8433 19.9425 12.0245C19.8793 12.2058 19.7652 12.365 19.6138 12.4832C19.4625 12.6014 19.2803 12.6735 19.0891 12.6909L14.6211 13.0979L17.6861 19.6669C17.9126 20.1235 18.019 20.6304 17.9953 21.1396C17.9716 21.6488 17.8185 22.1435 17.5505 22.5771C17.2825 23.0107 16.9084 23.3689 16.4636 23.6178C16.0188 23.8668 15.5179 23.9983 15.0081 23.9999ZM9.54312 13.0319C9.61265 13.0319 9.682 13.039 9.75012 13.0529C9.90194 13.0849 10.0442 13.1518 10.1657 13.2483C10.2872 13.3448 10.3846 13.4683 10.4501 13.6089L14.1251 21.4849C14.1868 21.6009 14.2708 21.7036 14.3722 21.7872C14.4737 21.8708 14.5906 21.9336 14.7162 21.9719C14.8419 22.0103 14.9739 22.0236 15.1047 22.011C15.2356 21.9984 15.3626 21.9601 15.4786 21.8984C15.5946 21.8367 15.6974 21.7527 15.7809 21.6513C15.8645 21.5498 15.9273 21.433 15.9657 21.3073C16.0041 21.1816 16.0174 21.0496 16.0047 20.9188C15.9921 20.7879 15.9538 20.6609 15.8921 20.5449L12.2101 12.6539C12.1422 12.5085 12.1103 12.3489 12.1171 12.1885C12.1238 12.0282 12.1691 11.8718 12.249 11.7327C12.329 11.5935 12.4412 11.4756 12.5763 11.389C12.7114 11.3024 12.8653 11.2495 13.0251 11.2349L16.7251 10.8979L7.63412 2.20588C7.49166 2.08481 7.3173 2.0074 7.13195 1.98293C6.9466 1.95845 6.75813 1.98795 6.58912 2.06788C6.41247 2.14557 6.2625 2.2734 6.1578 2.43551C6.0531 2.59763 5.99828 2.7869 6.00012 2.97988V15.7999L8.88512 13.2799C9.0672 13.1203 9.301 13.0322 9.54312 13.0319Z" fill="#374957"/>
</g>
<defs>
<clipPath id="clip0_308_5359">
<rect width="24" height="24" fill="white"/>
</clipPath>
</defs>
</svg>
