<svg width="24" height="24" viewBox="0 0 24 24" fill="none" xmlns="http://www.w3.org/2000/svg">
<g clip-path="url(#clip0_308_5521)">
<path d="M19.9499 5.53651L16.4639 2.05051C15.8155 1.39859 15.0442 0.881737 14.1947 0.529856C13.3452 0.177976 12.4344 -0.00194228 11.5149 0.000513077H6.99988C5.67428 0.00210094 4.40344 0.529395 3.4661 1.46673C2.52876 2.40407 2.00147 3.67492 1.99988 5.00051V19.0005C2.00147 20.3261 2.52876 21.597 3.4661 22.5343C4.40344 23.4716 5.67428 23.9989 6.99988 24.0005H16.9999C18.3255 23.9989 19.5963 23.4716 20.5337 22.5343C21.471 21.597 21.9983 20.3261 21.9999 19.0005V10.4855C22.0023 9.56603 21.8224 8.65519 21.4705 7.8057C21.1187 6.95621 20.6018 6.18494 19.9499 5.53651ZM18.5359 6.95051C18.8409 7.26492 19.1035 7.61792 19.3169 8.00051H14.9999C14.7347 8.00051 14.4803 7.89516 14.2928 7.70762C14.1052 7.52008 13.9999 7.26573 13.9999 7.00051V2.68351C14.3825 2.8969 14.7355 3.15946 15.0499 3.46451L18.5359 6.95051ZM19.9999 19.0005C19.9999 19.7962 19.6838 20.5592 19.1212 21.1218C18.5586 21.6844 17.7955 22.0005 16.9999 22.0005H6.99988C6.20423 22.0005 5.44117 21.6844 4.87856 21.1218C4.31595 20.5592 3.99988 19.7962 3.99988 19.0005V5.00051C3.99988 4.20486 4.31595 3.4418 4.87856 2.87919C5.44117 2.31658 6.20423 2.00051 6.99988 2.00051H11.5149C11.6799 2.00051 11.8379 2.03251 11.9999 2.04751V7.00051C11.9999 7.79616 12.3159 8.55923 12.8786 9.12183C13.4412 9.68444 14.2042 10.0005 14.9999 10.0005H19.9529C19.9679 10.1625 19.9999 10.3205 19.9999 10.4855V19.0005ZM16.7239 13.3115C16.9065 13.5036 17.0054 13.7603 16.9988 14.0253C16.9922 14.2902 16.8808 14.5417 16.6889 14.7245L13.0999 18.1385C12.5357 18.6938 11.775 19.0036 10.9834 19.0004C10.1918 18.9972 9.43355 18.6813 8.87388 18.1215L7.33388 16.7475C7.13576 16.5709 7.01593 16.3228 7.00074 16.0578C6.99321 15.9266 7.01161 15.7952 7.05487 15.6711C7.09814 15.547 7.16542 15.4326 7.25288 15.3345C7.34034 15.2364 7.44626 15.1565 7.56461 15.0993C7.68295 15.0422 7.81139 15.0089 7.9426 15.0014C8.20759 14.9862 8.46776 15.0769 8.66588 15.2535L10.2509 16.6675C10.3416 16.7694 10.4522 16.8517 10.576 16.9092C10.6997 16.9667 10.8338 16.9984 10.9702 17.0021C11.1066 17.0059 11.2423 16.9817 11.369 16.931C11.4957 16.8803 11.6107 16.8043 11.7069 16.7075L15.3069 13.2765C15.4021 13.1855 15.5143 13.1142 15.6371 13.0667C15.76 13.0191 15.891 12.9963 16.0226 12.9996C16.1543 13.0029 16.284 13.0321 16.4044 13.0856C16.5247 13.1391 16.6333 13.2159 16.7239 13.3115Z" fill="#374957"/>
</g>
<defs>
<clipPath id="clip0_308_5521">
<rect width="24" height="24" fill="white"/>
</clipPath>
</defs>
</svg>
