<svg width="24" height="24" viewBox="0 0 24 24" fill="none" xmlns="http://www.w3.org/2000/svg">
<g clip-path="url(#clip0_308_5218)">
<path d="M3.99993 6.00006C3.60568 6.00109 3.21514 5.92394 2.8509 5.77306C2.48667 5.62218 2.15597 5.40057 1.87793 5.12106L0.333929 3.74706C0.135812 3.57042 0.0159778 3.32232 0.000787327 3.05733C-0.0144031 2.79234 0.076295 2.53217 0.252929 2.33406C0.429563 2.13594 0.677665 2.0161 0.942654 2.00091C1.20764 1.98572 1.46781 2.07642 1.66593 2.25306L3.25093 3.66706C3.34167 3.76895 3.45229 3.8512 3.57601 3.90874C3.69972 3.96629 3.8339 3.9979 3.97029 4.00165C4.10668 4.0054 4.24239 3.9812 4.36907 3.93053C4.49576 3.87987 4.61074 3.80382 4.70693 3.70706L8.31093 0.276055C8.50472 0.103525 8.75799 0.0130738 9.01723 0.0238058C9.27648 0.0345378 9.5214 0.145613 9.70027 0.33357C9.87914 0.521527 9.97795 0.771649 9.97584 1.03111C9.97372 1.29056 9.87084 1.53904 9.68893 1.72405L6.09993 5.13806C5.8237 5.41267 5.49605 5.63015 5.13572 5.77806C4.77539 5.92597 4.38944 6.00141 3.99993 6.00006ZM23.9999 4.00006C23.9999 3.73484 23.8946 3.48048 23.707 3.29295C23.5195 3.10541 23.2651 3.00006 22.9999 3.00006H12.9999C12.7347 3.00006 12.4804 3.10541 12.2928 3.29295C12.1053 3.48048 11.9999 3.73484 11.9999 4.00006C11.9999 4.26527 12.1053 4.51963 12.2928 4.70716C12.4804 4.8947 12.7347 5.00006 12.9999 5.00006H22.9999C23.2651 5.00006 23.5195 4.8947 23.707 4.70716C23.8946 4.51963 23.9999 4.26527 23.9999 4.00006ZM6.09993 13.1381L9.68893 9.72406C9.7891 9.63488 9.87031 9.52646 9.92772 9.40525C9.98514 9.28404 10.0176 9.15252 10.0231 9.01852C10.0287 8.88452 10.0072 8.75077 9.96002 8.62523C9.91282 8.49969 9.84085 8.38493 9.74839 8.28778C9.65593 8.19063 9.54487 8.11306 9.42183 8.0597C9.29878 8.00635 9.16626 7.97829 9.03214 7.97719C8.89803 7.9761 8.76507 8.00199 8.64117 8.05334C8.51727 8.10468 8.40496 8.18042 8.31093 8.27606L4.71093 11.7071C4.52056 11.8891 4.26732 11.9907 4.00393 11.9907C3.74054 11.9907 3.4873 11.8891 3.29693 11.7071L1.70693 10.1221C1.51833 9.9399 1.26572 9.8391 1.00353 9.84138C0.741331 9.84366 0.490519 9.94883 0.305111 10.1342C0.119703 10.3196 0.0145336 10.5705 0.0122552 10.8327C0.00997675 11.0949 0.110771 11.3475 0.292929 11.5361L1.87793 13.1211C2.4376 13.6809 3.19585 13.9968 3.98743 14C4.77901 14.0031 5.53977 13.6933 6.10393 13.1381H6.09993ZM23.9999 12.0001C23.9999 11.7348 23.8946 11.4805 23.707 11.2929C23.5195 11.1054 23.2651 11.0001 22.9999 11.0001H12.9999C12.7347 11.0001 12.4804 11.1054 12.2928 11.2929C12.1053 11.4805 11.9999 11.7348 11.9999 12.0001C11.9999 12.2653 12.1053 12.5196 12.2928 12.7072C12.4804 12.8947 12.7347 13.0001 12.9999 13.0001H22.9999C23.2651 13.0001 23.5195 12.8947 23.707 12.7072C23.8946 12.5196 23.9999 12.2653 23.9999 12.0001ZM6.09993 21.1381L9.68493 17.7241C9.7851 17.6349 9.86631 17.5265 9.92372 17.4053C9.98114 17.284 10.0136 17.1525 10.0191 17.0185C10.0247 16.8845 10.0032 16.7508 9.95601 16.6252C9.90882 16.4997 9.83685 16.3849 9.74439 16.2878C9.65193 16.1906 9.54087 16.1131 9.41783 16.0597C9.29478 16.0063 9.16226 15.9783 9.02814 15.9772C8.89403 15.9761 8.76107 16.002 8.63717 16.0533C8.51327 16.1047 8.40096 16.1804 8.30693 16.2761L4.70693 19.7071C4.61074 19.8038 4.49576 19.8799 4.36907 19.9305C4.24239 19.9812 4.10668 20.0054 3.97029 20.0017C3.8339 19.9979 3.69972 19.9663 3.57601 19.9087C3.45229 19.8512 3.34167 19.769 3.25093 19.6671L1.66593 18.2531C1.46781 18.0764 1.20764 17.9857 0.942654 18.0009C0.677665 18.0161 0.429563 18.1359 0.252929 18.3341C0.076295 18.5322 -0.0144031 18.7923 0.000787327 19.0573C0.0159778 19.3223 0.135812 19.5704 0.333929 19.7471L1.87793 21.1211C2.4376 21.6809 3.19585 21.9968 3.98743 22C4.77901 22.0031 5.53977 21.6933 6.10393 21.1381H6.09993ZM23.9999 20.0001C23.9999 19.7348 23.8946 19.4805 23.707 19.2929C23.5195 19.1054 23.2651 19.0001 22.9999 19.0001H12.9999C12.7347 19.0001 12.4804 19.1054 12.2928 19.2929C12.1053 19.4805 11.9999 19.7348 11.9999 20.0001C11.9999 20.2653 12.1053 20.5196 12.2928 20.7072C12.4804 20.8947 12.7347 21.0001 12.9999 21.0001H22.9999C23.2651 21.0001 23.5195 20.8947 23.707 20.7072C23.8946 20.5196 23.9999 20.2653 23.9999 20.0001Z" fill="#374957"/>
</g>
<defs>
<clipPath id="clip0_308_5218">
<rect width="24" height="24" fill="white"/>
</clipPath>
</defs>
</svg>
