<svg width="24" height="24" viewBox="0 0 24 24" fill="none" xmlns="http://www.w3.org/2000/svg">
<g clip-path="url(#clip0_308_5526)">
<path d="M24.0002 11.9829C23.9981 11.1689 23.7472 10.3749 23.2813 9.70739C22.8154 9.03986 22.1566 8.53064 21.3932 8.24794L21.3552 8.15694C20.3631 5.73038 18.4639 3.78632 16.0612 2.73794L15.7322 2.59394C15.4489 1.83286 14.9397 1.1766 14.2728 0.713208C13.6059 0.249819 12.8133 0.00146484 12.0012 0.00146484C11.1891 0.00146484 10.3964 0.249819 9.72954 0.713208C9.06265 1.1766 8.55342 1.83286 8.27018 2.59394L7.85218 2.78194C5.47072 3.86359 3.59638 5.81956 2.61718 8.24494C1.85252 8.52354 1.19165 9.02984 0.723628 9.69563C0.255607 10.3614 0.00293514 11.1547 -0.000334082 11.9685C-0.00360331 12.7823 0.242687 13.5776 0.705344 14.2471C1.168 14.9166 1.82478 15.4282 2.58718 15.7129L2.71518 16.0129C3.71853 18.3418 5.56122 20.2081 7.87718 21.2409L8.27018 21.4169C8.55422 22.1769 9.06364 22.832 9.73025 23.2945C10.3969 23.757 11.1888 24.0049 12.0002 24.0049C12.8115 24.0049 13.6035 23.757 14.2701 23.2945C14.9367 22.832 15.4461 22.1769 15.7302 21.4169L16.0972 21.2539C18.5198 20.1707 20.4244 18.1854 21.4062 15.7199C22.167 15.4343 22.8227 14.9237 23.2861 14.2561C23.7495 13.5885 23.9986 12.7956 24.0002 11.9829ZM12.0002 1.99994C12.3957 1.99994 12.7824 2.11724 13.1113 2.337C13.4402 2.55676 13.6966 2.86912 13.8479 3.23457C13.9993 3.60003 14.0389 4.00216 13.9617 4.39012C13.8846 4.77808 13.6941 5.13445 13.4144 5.41415C13.1347 5.69386 12.7783 5.88434 12.3904 5.96151C12.0024 6.03868 11.6003 5.99908 11.2348 5.8477C10.8694 5.69632 10.557 5.43998 10.3372 5.11108C10.1175 4.78218 10.0002 4.3955 10.0002 3.99994C10.0002 3.46951 10.2109 2.9608 10.586 2.58573C10.961 2.21065 11.4697 1.99994 12.0002 1.99994ZM3.98818 9.98494L4.07018 10.0159L4.08018 9.99094C4.58128 10.0358 5.04451 10.2763 5.36946 10.6604C5.69441 11.0445 5.85488 11.5412 5.81609 12.0428C5.7773 12.5444 5.54237 13.0105 5.16223 13.34C4.78209 13.6696 4.28738 13.836 3.78535 13.8033C3.28332 13.7705 2.81442 13.5412 2.4803 13.1651C2.14619 12.789 1.97379 12.2963 2.00047 11.7939C2.02716 11.2915 2.25078 10.8199 2.62286 10.4813C2.99495 10.1426 3.4855 9.96431 3.98818 9.98494ZM12.0002 21.9999C11.6046 21.9999 11.2179 21.8826 10.889 21.6629C10.5601 21.4431 10.3038 21.1308 10.1524 20.7653C10.001 20.3999 9.96144 19.9977 10.0386 19.6098C10.1158 19.2218 10.3063 18.8654 10.586 18.5857C10.8657 18.306 11.222 18.1155 11.61 18.0384C11.998 17.9612 12.4001 18.0008 12.7655 18.1522C13.131 18.3036 13.4434 18.5599 13.6631 18.8888C13.8829 19.2177 14.0002 19.6044 14.0002 19.9999C14.0002 20.5304 13.7895 21.0391 13.4144 21.4142C13.0393 21.7892 12.5306 21.9999 12.0002 21.9999ZM15.8932 19.1139C15.6941 18.23 15.2002 17.44 14.4926 16.874C13.7849 16.3081 12.9058 15.9997 11.9997 15.9997C11.0936 15.9997 10.2144 16.3081 9.5068 16.874C8.79919 17.44 8.30524 18.23 8.10618 19.1139C6.74077 18.3688 5.61901 17.246 4.87518 15.8799C5.75639 15.6808 6.54397 15.1886 7.10916 14.4838C7.67434 13.779 7.98367 12.9033 7.98657 11.9999C7.98947 11.0965 7.68578 10.2188 7.12514 9.51038C6.5645 8.80196 5.78009 8.30471 4.90018 8.09994C5.64675 6.75308 6.75792 5.64399 8.10618 4.89994C8.30607 5.78294 8.80025 6.57173 9.50757 7.13683C10.2149 7.70192 11.0933 8.00974 11.9987 8.00974C12.904 8.00974 13.7825 7.70192 14.4898 7.13683C15.1971 6.57173 15.6913 5.78294 15.8912 4.89994C17.2384 5.64316 18.3502 6.7494 19.1002 8.09294C18.2176 8.29453 17.4297 8.79023 16.866 9.49864C16.3022 10.2071 15.9961 11.0861 15.9979 11.9914C15.9996 12.8968 16.3091 13.7746 16.8756 14.4809C17.442 15.1871 18.2318 15.6798 19.1152 15.8779C18.3689 17.2397 17.2517 18.3618 15.8932 19.1139ZM20.0002 13.9829C19.6046 13.9829 19.2179 13.8656 18.889 13.6459C18.5601 13.4261 18.3038 13.1138 18.1524 12.7483C18.001 12.3829 17.9614 11.9807 18.0386 11.5928C18.1158 11.2048 18.3063 10.8484 18.586 10.5687C18.8657 10.289 19.222 10.0985 19.61 10.0214C19.998 9.9442 20.4001 9.98381 20.7655 10.1352C21.131 10.2866 21.4434 10.5429 21.6631 10.8718C21.8829 11.2007 22.0002 11.5874 22.0002 11.9829C22.0002 12.5134 21.7895 13.0221 21.4144 13.3972C21.0393 13.7722 20.5306 13.9829 20.0002 13.9829Z" fill="#374957"/>
</g>
<defs>
<clipPath id="clip0_308_5526">
<rect width="24" height="24" fill="white"/>
</clipPath>
</defs>
</svg>
