<svg width="24" height="24" viewBox="0 0 24 24" fill="none" xmlns="http://www.w3.org/2000/svg">
<path d="M12.0001 5.00024C10.6157 5.00024 9.26228 5.41079 8.11113 6.17996C6.95999 6.94913 6.06278 8.04238 5.53297 9.32146C5.00316 10.6005 4.86453 12.008 5.13463 13.3659C5.40472 14.7237 6.07141 15.971 7.05038 16.95C8.02935 17.929 9.27663 18.5956 10.6345 18.8657C11.9924 19.1358 13.3998 18.9972 14.6789 18.4674C15.958 17.9376 17.0512 17.0404 17.8204 15.8892C18.5896 14.7381 19.0001 13.3847 19.0001 12.0002C19.0001 10.1437 18.2626 8.36325 16.9499 7.0505C15.6371 5.73774 13.8566 5.00024 12.0001 5.00024ZM12.0001 17.0002C11.0112 17.0002 10.0445 16.707 9.22227 16.1576C8.40003 15.6082 7.75917 14.8273 7.38073 13.9137C7.00229 13 6.90327 11.9947 7.0962 11.0248C7.28913 10.0549 7.76533 9.16397 8.46459 8.46471C9.16385 7.76545 10.0548 7.28924 11.0247 7.09632C11.9946 6.90339 12.9999 7.00241 13.9135 7.38085C14.8272 7.75928 15.6081 8.40015 16.1575 9.22239C16.7069 10.0446 17.0001 11.0113 17.0001 12.0002C17.0001 13.3263 16.4733 14.5981 15.5357 15.5358C14.598 16.4735 13.3262 17.0002 12.0001 17.0002Z" fill="#374957"/>
</svg>
