<svg width="24" height="24" viewBox="0 0 24 24" fill="none" xmlns="http://www.w3.org/2000/svg">
<g clip-path="url(#clip0_357_6397)">
<path d="M19.9478 23.0008H4.05183C3.36078 23.0048 2.68031 22.831 2.07579 22.4962C1.47127 22.1614 0.963007 21.6767 0.599828 21.0888C0.241139 20.515 0.0360083 19.8585 0.00413658 19.1826C-0.0277351 18.5066 0.114722 17.8338 0.417828 17.2288L8.37983 3.21278C8.72246 2.54456 9.24336 1.98421 9.88485 1.59381C10.5263 1.20341 11.2634 0.998189 12.0143 1.00088C12.7652 1.00357 13.5008 1.21407 14.1395 1.60906C14.7781 2.00405 15.295 2.56812 15.6328 3.23878L23.5548 17.1798C23.8688 17.7893 24.0195 18.4698 23.9922 19.1549C23.9649 19.8399 23.7604 20.5063 23.3988 21.0888C23.0357 21.6766 22.5276 22.1611 21.9233 22.496C21.319 22.8308 20.6387 23.0046 19.9478 23.0008Z" fill="#374957"/>
</g>
<defs>
<clipPath id="clip0_357_6397">
<rect width="24" height="24" fill="white"/>
</clipPath>
</defs>
</svg>
