<svg width="24" height="24" viewBox="0 0 24 24" fill="none" xmlns="http://www.w3.org/2000/svg">
<g clip-path="url(#clip0_357_6868)">
<path d="M20.057 16.7996L20.157 16.8996C20.384 17.1286 20.6653 17.2964 20.9745 17.3875C21.2838 17.4786 21.6111 17.49 21.926 17.4206C22.2358 17.3556 22.5243 17.2137 22.7649 17.0081C23.0055 16.8024 23.1906 16.5395 23.303 16.2436C23.8551 14.7939 24.1191 13.2504 24.08 11.6996C23.9675 8.65365 22.7146 5.76112 20.5698 3.59537C18.425 1.42962 15.5448 0.14875 12.5 0.00663763C10.89 -0.0493441 9.28519 0.219428 7.78128 0.79693C6.27736 1.37443 4.90512 2.24884 3.74637 3.36802C2.58762 4.4872 1.66609 5.82825 1.0367 7.3112C0.407318 8.79415 0.0829746 10.3887 0.0830078 11.9996C0.086713 15.1811 1.35219 18.2312 3.60182 20.4808C5.85145 22.7305 8.90155 23.9959 12.083 23.9996C12.421 23.9996 12.753 23.9776 13.083 23.9496C13.3334 23.9285 13.5667 23.8139 13.7364 23.6286C13.9061 23.4433 13.9999 23.2009 13.999 22.9496L13.967 19.3616C13.9589 18.6526 14.1623 17.9573 14.5512 17.3644C14.9402 16.7715 15.497 16.308 16.1506 16.033C16.8042 15.758 17.5249 15.6841 18.2207 15.8207C18.9165 15.9572 19.5558 16.298 20.057 16.7996ZM17.115 8.04964C17.4017 7.97356 17.7046 7.9842 17.9853 8.08023C18.2659 8.17626 18.5118 8.35335 18.6919 8.58912C18.8719 8.8249 18.978 9.10876 18.9967 9.40482C19.0154 9.70088 18.946 9.99584 18.797 10.2524C18.6481 10.509 18.4265 10.7156 18.1601 10.8463C17.8938 10.9769 17.5947 11.0256 17.3007 10.9862C17.0066 10.9468 16.7309 10.8212 16.5083 10.6251C16.2857 10.429 16.1262 10.1713 16.05 9.88464C15.9994 9.69422 15.9868 9.4957 16.013 9.30042C16.0391 9.10514 16.1035 8.91692 16.2024 8.74652C16.3013 8.57612 16.4328 8.42687 16.5894 8.30729C16.746 8.18772 16.9246 8.10017 17.115 8.04964ZM7.88501 16.9496C7.59828 17.0257 7.29543 17.0151 7.01475 16.919C6.73407 16.823 6.48817 16.6459 6.30813 16.4102C6.12809 16.1744 6.02201 15.8905 6.00329 15.5945C5.98457 15.2984 6.05406 15.0034 6.20297 14.7469C6.35188 14.4903 6.57352 14.2836 6.83987 14.153C7.10622 14.0224 7.40532 13.9737 7.69935 14.0131C7.99338 14.0524 8.26913 14.1781 8.49174 14.3742C8.71436 14.5703 8.87383 14.8279 8.95001 15.1146C9.0006 15.3051 9.01318 15.5036 8.98704 15.6989C8.96089 15.8941 8.89653 16.0824 8.79764 16.2528C8.69874 16.4232 8.56724 16.5724 8.41065 16.692C8.25406 16.8116 8.07544 16.8991 7.88501 16.9496ZM7.88501 10.9496C7.59828 11.0257 7.29543 11.0151 7.01475 10.919C6.73407 10.823 6.48817 10.6459 6.30813 10.4102C6.12809 10.1744 6.02201 9.89052 6.00329 9.59445C5.98457 9.29839 6.05406 9.00343 6.20297 8.74686C6.35188 8.49029 6.57352 8.28364 6.83987 8.15302C7.10622 8.02241 7.40532 7.97371 7.69935 8.01307C7.99338 8.05244 8.26913 8.1781 8.49174 8.37418C8.71436 8.57025 8.87383 8.82793 8.95001 9.11464C9.0006 9.30505 9.01318 9.50357 8.98704 9.69885C8.96089 9.89414 8.89653 10.0824 8.79764 10.2528C8.69874 10.4232 8.56724 10.5724 8.41065 10.692C8.25406 10.8116 8.07544 10.8991 7.88501 10.9496ZM12.885 7.94964C12.5983 8.02572 12.2954 8.01507 12.0147 7.91905C11.7341 7.82302 11.4882 7.64592 11.3081 7.41015C11.1281 7.17438 11.022 6.89051 11.0033 6.59445C10.9846 6.29839 11.0541 6.00343 11.203 5.74686C11.3519 5.49029 11.5735 5.28364 11.8399 5.15302C12.1062 5.02241 12.4053 4.97371 12.6993 5.01307C12.9934 5.05244 13.2691 5.1781 13.4917 5.37418C13.7144 5.57025 13.8738 5.82793 13.95 6.11464C14.0006 6.30505 14.0132 6.50357 13.987 6.69885C13.9609 6.89414 13.8965 7.08235 13.7976 7.25276C13.6987 7.42316 13.5672 7.57241 13.4106 7.69198C13.2541 7.81156 13.0754 7.89911 12.885 7.94964Z" fill="#374957"/>
</g>
<defs>
<clipPath id="clip0_357_6868">
<rect width="24" height="24" fill="white"/>
</clipPath>
</defs>
</svg>
