<svg width="24" height="24" viewBox="0 0 24 24" fill="none" xmlns="http://www.w3.org/2000/svg">
<g clip-path="url(#clip0_357_6528)">
<path d="M21.77 8.94838C21.6068 8.89004 21.4577 8.79809 21.3323 8.67848C21.2069 8.55887 21.108 8.41426 21.042 8.25401C20.976 8.09377 20.9444 7.92146 20.9492 7.74823C20.954 7.575 20.9952 7.40471 21.07 7.24838C21.3569 6.64444 21.45 5.96647 21.3363 5.30754C21.2226 4.64861 20.9078 4.04101 20.435 3.56814C19.9623 3.09527 19.3548 2.7803 18.6959 2.66647C18.0369 2.55264 17.359 2.64553 16.755 2.93238C16.5986 3.00701 16.4283 3.04801 16.2551 3.05275C16.082 3.05749 15.9097 3.02586 15.7495 2.95989C15.5893 2.89393 15.4447 2.7951 15.3251 2.66979C15.2054 2.54447 15.1134 2.39546 15.055 2.23238C14.8301 1.60346 14.4164 1.05941 13.8704 0.674751C13.3244 0.290088 12.6728 0.0836182 12.005 0.0836182C11.3371 0.0836182 10.6855 0.290088 10.1395 0.674751C9.5935 1.05941 9.17976 1.60346 8.95495 2.23238C8.89661 2.39556 8.80466 2.54468 8.68505 2.67007C8.56544 2.79547 8.42083 2.89437 8.26059 2.96035C8.10034 3.02633 7.92803 3.05794 7.7548 3.05312C7.58157 3.0483 7.41128 3.00717 7.25495 2.93238C6.65063 2.64325 5.97152 2.54862 5.31117 2.66153C4.65083 2.77444 4.04174 3.08933 3.56781 3.56282C3.09388 4.03631 2.77843 4.64511 2.66491 5.30535C2.55139 5.96559 2.64538 6.64479 2.93395 7.24938C3.0089 7.40568 3.05016 7.576 3.05506 7.74927C3.05995 7.92255 3.02838 8.09491 2.96238 8.2552C2.89638 8.41549 2.79742 8.56012 2.67194 8.6797C2.54645 8.79929 2.39723 8.89117 2.23395 8.94938C1.60548 9.17464 1.06194 9.58855 0.677669 10.1345C0.293397 10.6804 0.0871582 11.3318 0.0871582 11.9994C0.0871582 12.667 0.293397 13.3183 0.677669 13.8643C1.06194 14.4102 1.60548 14.8241 2.23395 15.0494C2.39757 15.1072 2.54721 15.1988 2.67315 15.3182C2.79909 15.4376 2.89853 15.5821 2.96501 15.7424C3.03148 15.9027 3.06352 16.0752 3.05903 16.2487C3.05454 16.4221 3.01363 16.5927 2.93895 16.7494C2.65179 17.3529 2.55845 18.0306 2.67173 18.6893C2.78502 19.348 3.09938 19.9556 3.57168 20.4285C4.04398 20.9015 4.65107 21.2167 5.30964 21.3309C5.96821 21.4451 6.64599 21.3527 7.24995 21.0664C7.40628 20.9916 7.57657 20.9505 7.7498 20.9456C7.92303 20.9408 8.09534 20.9724 8.25559 21.0384C8.41583 21.1044 8.56044 21.2033 8.68005 21.3287C8.79966 21.4541 8.89161 21.6032 8.94995 21.7664C9.17476 22.3953 9.5885 22.9393 10.1345 23.324C10.6805 23.7087 11.3321 23.9151 12 23.9151C12.6678 23.9151 13.3194 23.7087 13.8654 23.324C14.4114 22.9393 14.8251 22.3953 15.05 21.7664C15.1083 21.6032 15.2002 21.4541 15.3199 21.3287C15.4395 21.2033 15.5841 21.1044 15.7443 21.0384C15.9046 20.9724 16.0769 20.9408 16.2501 20.9456C16.4233 20.9505 16.5936 20.9916 16.75 21.0664C17.3539 21.3534 18.0319 21.4464 18.6908 21.3327C19.3497 21.2191 19.9573 20.9042 20.4302 20.4315C20.9031 19.9587 21.218 19.3512 21.3319 18.6923C21.4457 18.0334 21.3528 17.3554 21.066 16.7514C20.9913 16.595 20.9503 16.4248 20.9456 16.2516C20.9408 16.0784 20.9725 15.9061 21.0384 15.7459C21.1044 15.5857 21.2032 15.4411 21.3285 15.3215C21.4539 15.2019 21.6029 15.1099 21.766 15.0514C22.3949 14.8266 22.9389 14.4128 23.3236 13.8668C23.7082 13.3208 23.9147 12.6693 23.9147 12.0014C23.9147 11.3335 23.7082 10.6819 23.3236 10.1359C22.9389 9.58993 22.3949 9.17619 21.766 8.95138L21.77 8.94838Z" fill="#374957"/>
</g>
<defs>
<clipPath id="clip0_357_6528">
<rect width="24" height="24" fill="white"/>
</clipPath>
</defs>
</svg>
