<svg width="24" height="24" viewBox="0 0 24 24" fill="none" xmlns="http://www.w3.org/2000/svg">
<path d="M20.467 17.2999C20.446 17.2699 18.91 15.4849 18.91 15.4849C19.4681 15.0737 19.8444 14.4616 19.9594 13.778C20.0743 13.0944 19.9189 12.3929 19.526 11.8219C19.501 11.7859 17.641 9.73085 17.641 9.73085C18.1063 9.49622 18.4857 9.12072 18.725 8.65785C18.9309 8.26137 19.0234 7.81577 18.9924 7.37009C18.9613 6.92442 18.8079 6.49595 18.549 6.13185C18.528 6.09985 13.886 0.845853 13.886 0.845853C13.6425 0.591044 13.3499 0.388234 13.0258 0.249673C12.7018 0.111111 12.353 0.0396729 12.0005 0.0396729C11.6481 0.0396729 11.2993 0.111111 10.9752 0.249673C10.6511 0.388234 10.3585 0.591044 10.115 0.845853C10.115 0.845853 5.47302 6.09985 5.45102 6.12985C5.13649 6.5536 4.97726 7.07262 5.00002 7.59985C5.0024 7.97215 5.15203 8.32838 5.41623 8.59071C5.68042 8.85303 6.03771 9.00012 6.41002 8.99985H12C12.2652 8.99985 12.5196 9.10521 12.7071 9.29275C12.8947 9.48028 13 9.73464 13 9.99985C13 10.2651 12.8947 10.5194 12.7071 10.707C12.5196 10.8945 12.2652 10.9999 12 10.9999H5.20602C5.20602 10.9999 4.49902 11.7839 4.47402 11.8199C4.171 12.2861 4.00663 12.8288 4.00002 13.3849C3.99361 13.5633 4.02461 13.7411 4.09102 13.9069C4.23963 14.2419 4.48493 14.525 4.79548 14.7197C5.10603 14.9145 5.46766 15.012 5.83402 14.9999H13C13.2652 14.9999 13.5196 15.1052 13.7071 15.2927C13.8947 15.4803 14 15.7346 14 15.9999C14 16.2651 13.8947 16.5194 13.7071 16.707C13.5196 16.8945 13.2652 16.9999 13 16.9999H3.78202C3.78202 16.9999 3.55402 17.2679 3.53302 17.2999C3.10329 17.9274 2.92635 18.6941 3.03759 19.4465C3.14884 20.1989 3.54007 20.8815 4.13302 21.3579C4.65767 21.7828 5.31491 22.0101 5.99002 21.9999H11V22.9999C11 23.2651 11.1054 23.5194 11.2929 23.707C11.4804 23.8945 11.7348 23.9999 12 23.9999C12.2652 23.9999 12.5196 23.8945 12.7071 23.707C12.8947 23.5194 13 23.2651 13 22.9999V21.9999H18.01C18.6871 22.0105 19.3462 21.7825 19.872 21.3559C20.4634 20.8787 20.8532 20.1962 20.9635 19.4443C21.0738 18.6925 20.8965 17.9267 20.467 17.2999Z" fill="#374957"/>
</svg>
