<svg width="24" height="24" viewBox="0 0 24 24" fill="none" xmlns="http://www.w3.org/2000/svg">
<g clip-path="url(#clip0_357_6379)">
<path d="M22.792 1.60959L13.262 13.9996H18C18.2652 13.9996 18.5196 14.105 18.7071 14.2925C18.8946 14.48 19 14.7344 19 14.9996C19 15.2648 18.8946 15.5192 18.7071 15.7067C18.5196 15.8942 18.2652 15.9996 18 15.9996H13V17.9996H18C18.2652 17.9996 18.5196 18.105 18.7071 18.2925C18.8946 18.48 19 18.7344 19 18.9996C19 19.2648 18.8946 19.5192 18.7071 19.7067C18.5196 19.8942 18.2652 19.9996 18 19.9996H13V22.9996C13 23.2648 12.8946 23.5192 12.7071 23.7067C12.5196 23.8942 12.2652 23.9996 12 23.9996C11.7348 23.9996 11.4804 23.8942 11.2929 23.7067C11.1054 23.5192 11 23.2648 11 22.9996V19.9996H6C5.73478 19.9996 5.48043 19.8942 5.29289 19.7067C5.10535 19.5192 5 19.2648 5 18.9996C5 18.7344 5.10535 18.48 5.29289 18.2925C5.48043 18.105 5.73478 17.9996 6 17.9996H11V15.9996H6C5.73478 15.9996 5.48043 15.8942 5.29289 15.7067C5.10535 15.5192 5 15.2648 5 14.9996C5 14.7344 5.10535 14.48 5.29289 14.2925C5.48043 14.105 5.73478 13.9996 6 13.9996H10.738L1.208 1.60959C1.05409 1.39899 0.988568 1.13658 1.02541 0.878344C1.06225 0.62011 1.19853 0.386491 1.40519 0.227322C1.61185 0.0681533 1.87252 -0.00396523 2.1316 0.0263503C2.39068 0.0566658 2.62767 0.187016 2.792 0.389594L12 12.3596L21.208 0.389594C21.2867 0.281853 21.3862 0.190959 21.5006 0.12227C21.615 0.0535803 21.742 0.00848377 21.8742 -0.0103626C22.0063 -0.0292089 22.1408 -0.0214238 22.2699 0.012534C22.3989 0.0464918 22.5199 0.105935 22.6256 0.187362C22.7313 0.268789 22.8197 0.370553 22.8854 0.486656C22.9512 0.60276 22.9931 0.730856 23.0086 0.863396C23.0241 0.995936 23.0129 1.13024 22.9757 1.25839C22.9385 1.38655 22.8761 1.50596 22.792 1.60959Z" fill="#374957"/>
</g>
<defs>
<clipPath id="clip0_357_6379">
<rect width="24" height="24" fill="white"/>
</clipPath>
</defs>
</svg>
