<svg width="24" height="24" viewBox="0 0 24 24" fill="none" xmlns="http://www.w3.org/2000/svg">
<g clip-path="url(#clip0_357_6530)">
<path d="M23 19.9998H14.816C14.6666 19.5815 14.4262 19.2017 14.1122 18.8876C13.7981 18.5736 13.4182 18.3332 13 18.1838V14.0198C14.344 14.0198 15.52 14.0078 16.1 13.9968C16.4586 13.9897 16.8154 13.9458 17.165 13.8658C18.0657 13.656 18.8897 13.1983 19.5436 12.5444C20.1975 11.8904 20.6553 11.0665 20.865 10.1658C21.1673 8.89913 20.9648 7.56457 20.3003 6.44466C19.6358 5.32475 18.5616 4.50743 17.305 4.16576L17.129 4.12276C16.829 4.05576 16.677 4.02276 16.541 3.69476C16.0573 2.52766 15.2176 1.54301 14.1415 0.881146C13.0654 0.21928 11.8079 -0.0860311 10.5481 0.00872726C9.2883 0.103486 8.09057 0.593477 7.12559 1.40887C6.16062 2.22426 5.47764 3.32344 5.174 4.54976C4.95775 5.44597 4.93864 6.37844 5.118 7.28276C4.45228 7.5691 3.89186 8.05504 3.51409 8.67348C3.13633 9.29193 2.95985 10.0124 3.00902 10.7354C3.05819 11.4584 3.33058 12.1484 3.78859 12.71C4.2466 13.2716 4.86764 13.6772 5.566 13.8708C5.83814 13.9456 6.11798 13.9888 6.4 13.9998C7.053 14.0178 8.949 14.0258 10.921 14.0258H11V18.1868C10.5821 18.3358 10.2024 18.5758 9.88837 18.8893C9.57434 19.2028 9.33378 19.5821 9.184 19.9998H1C0.734784 19.9998 0.48043 20.1051 0.292893 20.2926C0.105357 20.4802 0 20.7345 0 20.9998C0 21.265 0.105357 21.5193 0.292893 21.7069C0.48043 21.8944 0.734784 21.9998 1 21.9998H9.184C9.38765 22.5843 9.76816 23.091 10.2727 23.4495C10.7773 23.8081 11.381 24.0007 12 24.0007C12.619 24.0007 13.2227 23.8081 13.7273 23.4495C14.2318 23.091 14.6124 22.5843 14.816 21.9998H23C23.2652 21.9998 23.5196 21.8944 23.7071 21.7069C23.8946 21.5193 24 21.265 24 20.9998C24 20.7345 23.8946 20.4802 23.7071 20.2926C23.5196 20.1051 23.2652 19.9998 23 19.9998Z" fill="#374957"/>
</g>
<defs>
<clipPath id="clip0_357_6530">
<rect width="24" height="24" fill="white"/>
</clipPath>
</defs>
</svg>
