<svg width="24" height="24" viewBox="0 0 24 24" fill="none" xmlns="http://www.w3.org/2000/svg">
<g clip-path="url(#clip0_357_6514)">
<path d="M19.9999 6.99976V0.999765C19.9999 0.734548 20.1053 0.480194 20.2928 0.292658C20.4804 0.105121 20.7347 -0.000235447 20.9999 -0.000235447C21.2652 -0.000235447 21.5195 0.105121 21.7071 0.292658C21.8946 0.480194 21.9999 0.734548 21.9999 0.999765V6.99976C21.9999 7.26498 21.8946 7.51933 21.7071 7.70687C21.5195 7.89441 21.2652 7.99976 20.9999 7.99976C20.7347 7.99976 20.4804 7.89441 20.2928 7.70687C20.1053 7.51933 19.9999 7.26498 19.9999 6.99976ZM16.9999 7.99976C17.2652 7.99976 17.5195 7.89441 17.7071 7.70687C17.8946 7.51933 17.9999 7.26498 17.9999 6.99976V0.999765C17.9999 0.734548 17.8946 0.480194 17.7071 0.292658C17.5195 0.105121 17.2652 -0.000235447 16.9999 -0.000235447C16.7347 -0.000235447 16.4804 0.105121 16.2928 0.292658C16.1053 0.480194 15.9999 0.734548 15.9999 0.999765V6.99976C15.9999 7.26498 16.1053 7.51933 16.2928 7.70687C16.4804 7.89441 16.7347 7.99976 16.9999 7.99976ZM23.0939 16.7378C23.0639 16.7068 20.6569 14.8548 20.6569 14.8548C20.0793 14.3046 19.3118 13.9984 18.514 13.9997C17.7163 14.001 16.9498 14.3098 16.3739 14.8618L14.4739 16.4678C12.917 15.8244 11.5026 14.8797 10.3121 13.6878C9.12162 12.4959 8.17848 11.0804 7.53695 9.52276L9.13695 7.62276C9.6878 7.04678 9.99566 6.28076 9.99659 5.48377C9.99752 4.68677 9.69146 3.92003 9.14195 3.34276C9.14195 3.34276 7.29195 0.939765 7.25995 0.908765C6.68975 0.3336 5.91595 0.00617097 5.10609 -0.0026257C4.29624 -0.0114224 3.5155 0.299121 2.93295 0.861765L1.78395 1.86176C-5.93705 10.0708 13.9839 30.0008 22.1839 22.1618L23.0959 21.1118C23.6737 20.5306 23.9978 19.7443 23.9974 18.9249C23.997 18.1054 23.6722 17.3194 23.0939 16.7388V16.7378Z" fill="#374957"/>
</g>
<defs>
<clipPath id="clip0_357_6514">
<rect width="24" height="24" fill="white"/>
</clipPath>
</defs>
</svg>
