<svg width="24" height="24" viewBox="0 0 24 24" fill="none" xmlns="http://www.w3.org/2000/svg">
<g clip-path="url(#clip0_357_6433)">
<path d="M12.5816 24.0001C17.1015 24.0116 21.2415 21.4727 23.2804 17.4388C23.5164 16.9395 23.303 16.3435 22.8038 16.1075C22.3255 15.8814 21.7539 16.067 21.4996 16.5309C18.9981 21.4541 12.9792 23.4173 8.05607 20.9158C3.13286 18.4143 1.16971 12.3954 3.67121 7.47216C6.1727 2.54895 12.1916 0.585851 17.1147 3.08734C19.0115 4.05113 20.5514 5.59479 21.5106 7.49391C21.7439 7.99438 22.3388 8.21097 22.8393 7.97761C23.3399 7.74424 23.5564 7.14937 23.323 6.64884C23.3144 6.63028 23.3052 6.612 23.2954 6.59401C20.309 0.678373 13.0925 -1.69615 7.17688 1.29026C1.2613 4.27667 -1.11327 11.4932 1.87314 17.4088C3.91333 21.4501 8.05448 23.9991 12.5816 24.0001Z" fill="#374957"/>
</g>
<defs>
<clipPath id="clip0_357_6433">
<rect width="24" height="24" fill="white"/>
</clipPath>
</defs>
</svg>
