<svg width="24" height="24" viewBox="0 0 24 24" fill="none" xmlns="http://www.w3.org/2000/svg">
<g clip-path="url(#clip0_357_6466)">
<path d="M22.466 8.46404L15.536 1.53304C14.5972 0.597026 13.3257 0.0714111 12 0.0714111C10.6743 0.0714111 9.40276 0.597026 8.464 1.53304L1.534 8.46404C0.596645 9.40168 0.0700684 10.6732 0.0700684 11.999C0.0700684 13.3249 0.596645 14.5964 1.534 15.534L8.464 22.465C9.40263 23.4013 10.6743 23.9271 12 23.9271C13.3257 23.9271 14.5974 23.4013 15.536 22.465L22.466 15.534C23.4034 14.5964 23.9299 13.3249 23.9299 11.999C23.9299 10.6732 23.4034 9.40168 22.466 8.46404Z" fill="#374957"/>
</g>
<defs>
<clipPath id="clip0_357_6466">
<rect width="24" height="24" fill="white"/>
</clipPath>
</defs>
</svg>
