<svg width="24" height="24" viewBox="0 0 24 24" fill="none" xmlns="http://www.w3.org/2000/svg">
<g clip-path="url(#clip0_357_6522)">
<path d="M2.7481 23.9997C2.35346 23.9986 1.96366 23.9128 1.60508 23.748C1.24649 23.5832 0.927498 23.3433 0.669682 23.0445C0.411866 22.7457 0.221248 22.3951 0.110729 22.0162C0.000211105 21.6374 -0.0276272 21.2392 0.0290987 20.8487C0.288099 19.0427 1.1621 15.7147 2.4021 14.4747C3.34693 13.5301 4.6283 12.9995 5.96431 12.9997C7.30031 12.9999 8.58153 13.5308 9.5261 14.4757C10.4707 15.4205 11.0012 16.7019 11.001 18.0379C11.0008 19.3739 10.4699 20.6551 9.5251 21.5997C8.2861 22.8387 4.9581 23.7127 3.1511 23.9717C3.01764 23.9909 2.88294 24.0003 2.7481 23.9997ZM23.1001 0.899665C22.5164 0.343687 21.7412 0.0335693 20.9351 0.0335693C20.129 0.0335693 19.3538 0.343687 18.7701 0.899665L8.2701 11.3997C9.27447 11.7454 10.1866 12.3159 10.937 13.0676C11.6874 13.8194 12.2563 14.7327 12.6001 15.7377L23.1001 5.22966C23.6728 4.65466 23.9943 3.87619 23.9943 3.06466C23.9943 2.25314 23.6728 1.47466 23.1001 0.899665Z" fill="#374957"/>
</g>
<defs>
<clipPath id="clip0_357_6522">
<rect width="24" height="24" fill="white"/>
</clipPath>
</defs>
</svg>
