<svg width="24" height="24" viewBox="0 0 24 24" fill="none" xmlns="http://www.w3.org/2000/svg">
<path d="M15.9998 12.9994C15.534 13.6204 14.9301 14.1244 14.2358 14.4715C13.5415 14.8187 12.776 14.9994 11.9998 14.9994C11.2235 14.9994 10.458 14.8187 9.76369 14.4715C9.06941 14.1244 8.46549 13.6204 7.99976 12.9994C7.60779 13.5278 7.11454 13.9728 6.54879 14.3085C5.98303 14.6443 5.35609 14.8641 4.70452 14.955C4.05296 15.0459 3.3898 15.0062 2.75373 14.8382C2.11767 14.6702 1.52142 14.3772 0.999756 13.9764V18.9994C1.00134 20.325 1.52864 21.5958 2.46598 22.5332C3.40331 23.4705 4.67416 23.9978 5.99976 23.9994H17.9998C19.3254 23.9978 20.5962 23.4705 21.5335 22.5332C22.4709 21.5958 22.9982 20.325 22.9998 18.9994V13.9734C22.4783 14.3744 21.8822 14.6676 21.2462 14.8358C20.6103 15.0041 19.9472 15.044 19.2956 14.9534C18.6441 14.8627 18.0171 14.6433 17.4512 14.3078C16.8854 13.9723 16.3919 13.5275 15.9998 12.9994Z" fill="#374957"/>
<path d="M21.6998 3.13144C21.5062 2.24053 21.0123 1.44323 20.3008 0.873195C19.5893 0.303155 18.7034 -0.00498097 17.7918 0.000436444H16.9998V3.00044C16.9998 3.26565 16.8944 3.52001 16.7069 3.70754C16.5193 3.89508 16.265 4.00044 15.9998 4.00044C15.7345 4.00044 15.4802 3.89508 15.2926 3.70754C15.1051 3.52001 14.9998 3.26565 14.9998 3.00044V0.000436444H8.99976V3.00044C8.99976 3.26565 8.8944 3.52001 8.70686 3.70754C8.51933 3.89508 8.26497 4.00044 7.99976 4.00044C7.73454 4.00044 7.48019 3.89508 7.29265 3.70754C7.10511 3.52001 6.99976 3.26565 6.99976 3.00044V0.000436444H6.20776C5.29594 -0.00493205 4.41 0.303346 3.69848 0.873583C2.98696 1.44382 2.49312 2.24134 2.29976 3.13244L1.02176 8.90044L0.999756 10.0204C1.00107 10.4144 1.07997 10.8043 1.23194 11.1677C1.38392 11.5312 1.606 11.8612 1.88551 12.1388C2.44999 12.6996 3.21411 13.0131 4.00976 13.0104C4.40372 13.0091 4.79357 12.9302 5.15704 12.7782C5.52052 12.6263 5.8505 12.4042 6.12815 12.1247C6.40579 11.8452 6.62567 11.5137 6.77522 11.1492C6.92477 10.7848 7.00107 10.3944 6.99976 10.0004C6.99976 9.73522 7.10511 9.48087 7.29265 9.29333C7.48019 9.10579 7.73454 9.00044 7.99976 9.00044C8.26497 9.00044 8.51933 9.10579 8.70686 9.29333C8.8944 9.48087 8.99976 9.73522 8.99976 10.0004C8.99976 10.7961 9.31583 11.5591 9.87844 12.1218C10.441 12.6844 11.2041 13.0004 11.9998 13.0004C12.7954 13.0004 13.5585 12.6844 14.1211 12.1218C14.6837 11.5591 14.9998 10.7961 14.9998 10.0004C14.9998 9.73522 15.1051 9.48087 15.2926 9.29333C15.4802 9.10579 15.7345 9.00044 15.9998 9.00044C16.265 9.00044 16.5193 9.10579 16.7069 9.29333C16.8944 9.48087 16.9998 9.73522 16.9998 10.0004C16.9998 10.7961 17.3158 11.5591 17.8784 12.1218C18.441 12.6844 19.2041 13.0004 19.9998 13.0004C20.7954 13.0004 21.5585 12.6844 22.1211 12.1218C22.6837 11.5591 22.9998 10.7961 22.9998 10.0004V9.10744L21.6998 3.13144Z" fill="#374957"/>
</svg>
