<svg width="24" height="24" viewBox="0 0 24 24" fill="none" xmlns="http://www.w3.org/2000/svg">
<g clip-path="url(#clip0_357_6508)">
<path d="M24 13.5004C24 13.8287 23.9353 14.1538 23.8097 14.4571C23.6841 14.7604 23.4999 15.036 23.2678 15.2682C23.0356 15.5003 22.76 15.6845 22.4567 15.8101C22.1534 15.9357 21.8283 16.0004 21.5 16.0004H17.464L13.238 22.4874C12.9779 22.9488 12.5993 23.3323 12.1413 23.5983C11.6833 23.8643 11.1626 24.0031 10.633 24.0004C10.2081 24.0005 9.78943 23.8976 9.41295 23.7005C9.03648 23.5035 8.7134 23.218 8.47137 22.8688C8.22934 22.5195 8.07558 22.1167 8.02327 21.695C7.97096 21.2733 8.02165 20.8452 8.171 20.4474L10.019 16.0004H6C5.29487 16.0004 4.60226 15.8141 3.99236 15.4602C3.38245 15.1064 2.87692 14.5976 2.527 13.9854L0.200002 10.1604C0.100572 9.99528 0.035227 9.81193 0.00782364 9.62115C-0.0195797 9.43037 -0.00848607 9.23603 0.0404498 9.04961C0.0893857 8.86318 0.175172 8.68845 0.292745 8.53573C0.410319 8.38301 0.557296 8.25538 0.725002 8.16039C0.991132 8.02086 1.29484 7.96986 1.59195 8.01483C1.88906 8.05979 2.16407 8.19836 2.377 8.41039L3.794 9.82839C4.54397 10.5786 5.56122 11.0002 6.622 11.0004H21.5C21.8283 11.0004 22.1534 11.0651 22.4567 11.1907C22.76 11.3163 23.0356 11.5005 23.2678 11.7326C23.4999 11.9648 23.6841 12.2404 23.8097 12.5437C23.9353 12.847 24 13.1721 24 13.5004ZM17.731 9.00039L13.231 1.51339C12.9712 1.0524 12.5931 0.669123 12.1357 0.403141C11.6783 0.137159 11.1581 -0.00187754 10.629 0.000393595C10.2041 0.000509283 9.78564 0.103551 9.40929 0.300701C9.03295 0.497852 8.70997 0.783242 8.46799 1.13245C8.22601 1.48167 8.07223 1.8843 8.01981 2.30591C7.96739 2.72753 8.0179 3.15556 8.167 3.55339L10.285 9.00039H17.731Z" fill="#374957"/>
</g>
<defs>
<clipPath id="clip0_357_6508">
<rect width="24" height="24" fill="white"/>
</clipPath>
</defs>
</svg>
