<svg width="24" height="24" viewBox="0 0 24 24" fill="none" xmlns="http://www.w3.org/2000/svg">
<g clip-path="url(#clip0_357_6458)">
<path d="M24 15C24 20.077 17 24 15 24H9C7 24 0 20.077 0 15C0.00842079 14.2021 0.331028 13.4397 0.897865 12.8781C1.4647 12.3165 2.23007 12.001 3.028 12H20.972C21.7698 12.0015 22.5348 12.3172 23.1016 12.8787C23.6683 13.4402 23.9911 14.2023 24 15ZM19.714 3.02C19.366 3.068 18.987 3.136 18.599 3.213C18.894 2.337 19.599 0.112998 17.999 -2.19233e-06C17.7338 -2.19233e-06 17.4794 0.105355 17.2919 0.292891C17.1044 0.480427 16.999 0.734781 16.999 0.999998C17.0107 1.57013 16.8997 2.13612 16.6735 2.6596C16.4473 3.18307 16.1112 3.6518 15.688 4.034C14.8119 4.32378 14.002 4.78432 13.305 5.389C12.7134 5.98062 12.3001 6.72677 12.1125 7.54216C11.9248 8.35756 11.9704 9.20929 12.244 10H13.586L16.293 7.293C16.4816 7.11084 16.7342 7.01005 16.9964 7.01232C17.2586 7.0146 17.5094 7.11977 17.6948 7.30518C17.8802 7.49059 17.9854 7.7414 17.9877 8.0036C17.99 8.26579 17.8892 8.5184 17.707 8.707L16.414 10H20.665C21.2857 8.48559 21.7273 6.90388 21.981 5.287C22.0243 4.97918 21.9955 4.66551 21.8969 4.37072C21.7983 4.07593 21.6325 3.80807 21.4127 3.58827C21.1929 3.36846 20.9251 3.20272 20.6303 3.10411C20.3355 3.00549 20.0218 2.9767 19.714 3.02ZM10 10C9.866 4.723 2.133 4.727 2 10H10ZM10.5 6.068C10.8704 5.19224 11.4239 4.40586 12.1233 3.76166C12.8227 3.11745 13.6518 2.63033 14.555 2.333C14.8111 2.01895 14.9622 1.63247 14.987 1.228C14.5433 0.765117 13.9952 0.415188 13.3885 0.207465C12.7819 -0.00025767 12.1343 -0.0597376 11.5 0.0339978C10.7737 0.0922989 10.0794 0.358194 9.5 0.799998C8.84525 0.307328 8.05313 0.0311684 7.234 0.00999781C6.19391 -0.0904991 5.15632 0.224803 4.348 0.886998C3.81074 1.35834 3.41105 1.96631 3.19133 2.64641C2.97161 3.32652 2.94005 4.05341 3.1 4.75C4.29911 4.09394 5.68629 3.86697 7.03196 4.10664C8.37763 4.34632 9.60114 5.03827 10.5 6.068Z" fill="#374957"/>
</g>
<defs>
<clipPath id="clip0_357_6458">
<rect width="24" height="24" fill="white"/>
</clipPath>
</defs>
</svg>
