<svg width="24" height="24" viewBox="0 0 24 24" fill="none" xmlns="http://www.w3.org/2000/svg">
<g clip-path="url(#clip0_357_6442)">
<path d="M22.8309 9.17105L18.9519 5.29205C18.5547 4.90838 17.9216 4.9194 17.538 5.31666C17.1637 5.70418 17.1637 6.31857 17.538 6.70608L21.417 10.5851C21.5322 10.7026 21.6329 10.8336 21.717 10.9751C21.702 10.9751 21.69 10.9671 21.6749 10.9671L5.99095 10.9991C5.43867 10.9991 4.99097 11.4468 4.99097 11.9991C4.99097 12.5513 5.43867 12.9991 5.99095 12.9991L21.669 12.967C21.6969 12.967 21.72 12.953 21.747 12.9511C21.6583 13.1202 21.5458 13.2758 21.413 13.4131L17.534 17.2921C17.1367 17.6757 17.1257 18.3088 17.5094 18.706C17.893 19.1033 18.5261 19.1143 18.9233 18.7306C18.9317 18.7226 18.9399 18.7144 18.948 18.706L22.827 14.827C24.3885 13.265 24.3885 10.733 22.827 9.17105H22.8309Z" fill="#374957"/>
<path d="M7.00194 22H5.00192C3.34508 22 2.00192 20.6568 2.00192 19V5.00002C2.00192 3.34317 3.34508 2.00002 5.00192 2.00002H7.00194C7.55422 2.00002 8.00192 1.55231 8.00192 1.00003C8.00192 0.44775 7.55427 0 7.00194 0H5.00192C2.24192 0.00332812 0.00528125 2.23997 0.00195312 5.00002V19C0.00528125 21.76 2.24192 23.9967 5.00197 24H7.00198C7.55427 24 8.00197 23.5523 8.00197 23C8.00197 22.4477 7.55427 22 7.00194 22Z" fill="#374957"/>
</g>
<defs>
<clipPath id="clip0_357_6442">
<rect width="24" height="24" fill="white"/>
</clipPath>
</defs>
</svg>
