<svg width="24" height="24" viewBox="0 0 24 24" fill="none" xmlns="http://www.w3.org/2000/svg">
<g clip-path="url(#clip0_357_6503)">
<path d="M20 0.0102925C16.188 0.0102925 11.875 2.04829 8.46102 5.46129C5.02773 8.86513 2.26686 12.8857 0.323022 17.3123C0.0215098 18.0129 -0.0720599 18.7855 0.0534787 19.5378C0.179017 20.2902 0.518363 20.9905 1.03102 21.5553L15.293 7.29329C15.3853 7.19778 15.4956 7.1216 15.6176 7.06919C15.7396 7.01678 15.8708 6.9892 16.0036 6.98804C16.1364 6.98689 16.2681 7.01219 16.391 7.06247C16.5139 7.11275 16.6255 7.18701 16.7194 7.2809C16.8133 7.37479 16.8876 7.48644 16.9378 7.60934C16.9881 7.73224 17.0134 7.86392 17.0123 7.99669C17.0111 8.12947 16.9835 8.26069 16.9311 8.3827C16.8787 8.5047 16.8025 8.61505 16.707 8.70729L2.44902 22.9653C3.01045 23.4812 3.70947 23.8231 4.46134 23.9497C5.21321 24.0762 5.98565 23.9819 6.68502 23.6783C11.1144 21.7373 15.1365 18.9757 18.539 15.5393C21.952 12.1263 23.99 7.81329 23.99 4.00029C24.0463 3.4625 23.9817 2.91894 23.8011 2.40929C23.6204 1.89963 23.3283 1.43674 22.9459 1.05439C22.5636 0.672042 22.1007 0.37989 21.591 0.199256C21.0814 0.0186213 20.5378 -0.045937 20 0.0102925Z" fill="#374957"/>
</g>
<defs>
<clipPath id="clip0_357_6503">
<rect width="24" height="24" fill="white"/>
</clipPath>
</defs>
</svg>
