<svg width="24" height="24" viewBox="0 0 24 24" fill="none" xmlns="http://www.w3.org/2000/svg">
<g clip-path="url(#clip0_357_6424)">
<path d="M21 13.0001C20.7348 13.0001 20.4805 12.8948 20.2929 12.7073C20.1054 12.5197 20 12.2654 20 12.0001C20 11.7349 20.1054 11.4806 20.2929 11.293C20.4805 11.1055 20.7348 11.0001 21 11.0001H23.949C23.7097 8.17649 22.4792 5.52851 20.4755 3.52472C18.4717 1.52093 15.8237 0.290505 13 0.0511475V3.03915C13 3.30436 12.8947 3.55872 12.7071 3.74625C12.5196 3.93379 12.2652 4.03915 12 4.03915C11.7348 4.03915 11.4805 3.93379 11.2929 3.74625C11.1054 3.55872 11 3.30436 11 3.03915V0.0511475C8.17637 0.290505 5.52839 1.52093 3.5246 3.52472C1.52081 5.52851 0.290383 8.17649 0.0510254 11.0001H3.00003C3.26524 11.0001 3.5196 11.1055 3.70713 11.293C3.89467 11.4806 4.00003 11.7349 4.00003 12.0001C4.00003 12.2654 3.89467 12.5197 3.70713 12.7073C3.5196 12.8948 3.26524 13.0001 3.00003 13.0001H0.0510254C0.290383 15.8238 1.52081 18.4718 3.5246 20.4756C5.52839 22.4794 8.17637 23.7098 11 23.9491V21.0001C11 20.7349 11.1054 20.4806 11.2929 20.293C11.4805 20.1055 11.7348 20.0001 12 20.0001C12.2652 20.0001 12.5196 20.1055 12.7071 20.293C12.8947 20.4806 13 20.7349 13 21.0001V23.9491C15.8237 23.7098 18.4717 22.4794 20.4755 20.4756C22.4792 18.4718 23.7097 15.8238 23.949 13.0001H21ZM15 13.0001H13V15.0001C13 15.2654 12.8947 15.5197 12.7071 15.7073C12.5196 15.8948 12.2652 16.0001 12 16.0001C11.7348 16.0001 11.4805 15.8948 11.2929 15.7073C11.1054 15.5197 11 15.2654 11 15.0001V13.0001H9.00003C8.73481 13.0001 8.48046 12.8948 8.29292 12.7073C8.10538 12.5197 8.00003 12.2654 8.00003 12.0001C8.00003 11.7349 8.10538 11.4806 8.29292 11.293C8.48046 11.1055 8.73481 11.0001 9.00003 11.0001H11V9.00015C11 8.73493 11.1054 8.48058 11.2929 8.29304C11.4805 8.1055 11.7348 8.00015 12 8.00015C12.2652 8.00015 12.5196 8.1055 12.7071 8.29304C12.8947 8.48058 13 8.73493 13 9.00015V11.0001H15C15.2652 11.0001 15.5196 11.1055 15.7071 11.293C15.8947 11.4806 16 11.7349 16 12.0001C16 12.2654 15.8947 12.5197 15.7071 12.7073C15.5196 12.8948 15.2652 13.0001 15 13.0001Z" fill="#374957"/>
</g>
<defs>
<clipPath id="clip0_357_6424">
<rect width="24" height="24" fill="white"/>
</clipPath>
</defs>
</svg>
