<svg width="24" height="24" viewBox="0 0 24 24" fill="none" xmlns="http://www.w3.org/2000/svg">
<g clip-path="url(#clip0_357_6405)">
<path d="M14.181 0.207464C14.0368 0.180927 13.8885 0.186421 13.7467 0.223556C13.6048 0.260691 13.4729 0.328559 13.3602 0.422352C13.2475 0.516146 13.1568 0.633571 13.0946 0.766309C13.0323 0.899047 13 1.04385 13 1.19046V4.06946C11.7892 3.90883 10.5577 4.02919 9.4009 4.42122C8.24414 4.81324 7.19319 5.4664 6.32954 6.33005C5.46589 7.1937 4.81273 8.24464 4.42071 9.40141C4.02868 10.5582 3.90832 11.7897 4.06895 13.0005H1.18996C1.04334 13.0005 0.898538 13.0328 0.7658 13.0951C0.633062 13.1574 0.515637 13.248 0.421844 13.3607C0.32805 13.4734 0.260182 13.6053 0.223047 13.7472C0.185912 13.889 0.180418 14.0373 0.206955 14.1815C0.602965 16.333 1.57959 18.3353 3.03123 19.9719C4.48286 21.6086 6.35428 22.8172 8.44313 23.4673C10.532 24.1173 12.7588 24.1839 14.8828 23.66C17.0067 23.136 18.9471 22.0414 20.494 20.4945C22.0409 18.9476 23.1355 17.0073 23.6594 14.8833C24.1834 12.7593 24.1168 10.5325 23.4667 8.44364C22.8167 6.35479 21.6081 4.48337 19.9714 3.03173C18.3348 1.5801 16.3325 0.603474 14.181 0.207464ZM12 14.0005C11.6503 13.9995 11.307 13.9066 11.0046 13.7311C10.7022 13.5555 10.4513 13.3036 10.277 13.0005H7.99996C7.73474 13.0005 7.48038 12.8951 7.29285 12.7076C7.10531 12.52 6.99996 12.2657 6.99996 12.0005C6.99996 11.7352 7.10531 11.4809 7.29285 11.2934C7.48038 11.1058 7.73474 11.0005 7.99996 11.0005H10.277C10.4512 10.7009 10.7004 10.4517 11 10.2775V7.00046C11 6.73525 11.1053 6.48089 11.2928 6.29336C11.4804 6.10582 11.7347 6.00046 12 6.00046C12.2652 6.00046 12.5195 6.10582 12.7071 6.29336C12.8946 6.48089 13 6.73525 13 7.00046V10.2775C13.3814 10.4966 13.6797 10.8357 13.8483 11.242C14.017 11.6482 14.0466 12.0989 13.9324 12.5237C13.8183 12.9486 13.5669 13.3237 13.2174 13.5908C12.8679 13.8579 12.4398 14.002 12 14.0005ZM9.97196 0.100464C10.1697 0.100464 10.3631 0.159113 10.5275 0.268994C10.692 0.378876 10.8201 0.535054 10.8958 0.71778C10.9715 0.900506 10.9913 1.10157 10.9527 1.29555C10.9142 1.48954 10.8189 1.66772 10.6791 1.80757C10.5392 1.94742 10.361 2.04266 10.167 2.08125C9.97306 2.11983 9.772 2.10003 9.58927 2.02434C9.40655 1.94866 9.25037 1.82048 9.14049 1.65603C9.0306 1.49159 8.97196 1.29825 8.97196 1.10046C8.97196 0.835247 9.07731 0.580893 9.26485 0.393357C9.45238 0.205821 9.70674 0.100464 9.97196 0.100464ZM5.87196 1.85646C6.06974 1.85646 6.26308 1.91511 6.42753 2.02499C6.59197 2.13488 6.72015 2.29105 6.79583 2.47378C6.87152 2.65651 6.89133 2.85757 6.85274 3.05155C6.81416 3.24554 6.71891 3.42372 6.57906 3.56357C6.43921 3.70342 6.26103 3.79866 6.06705 3.83725C5.87306 3.87583 5.672 3.85603 5.48927 3.78034C5.30655 3.70466 5.15037 3.57648 5.04049 3.41203C4.9306 3.24759 4.87196 3.05425 4.87196 2.85646C4.87142 2.59142 4.97613 2.33701 5.16308 2.14912C5.35003 1.96124 5.60391 1.85526 5.86896 1.85446L5.87196 1.85646ZM2.77896 4.84146C2.97674 4.84146 3.17008 4.90011 3.33453 5.00999C3.49897 5.11988 3.62715 5.27605 3.70283 5.45878C3.77852 5.64151 3.79833 5.84257 3.75974 6.03655C3.72116 6.23054 3.62591 6.40872 3.48606 6.54857C3.34621 6.68842 3.16803 6.78366 2.97405 6.82225C2.78006 6.86083 2.579 6.84103 2.39627 6.76534C2.21355 6.68966 2.05737 6.56148 1.94749 6.39703C1.8376 6.23258 1.77896 6.03925 1.77896 5.84146C1.77896 5.57625 1.88431 5.32189 2.07185 5.13436C2.25938 4.94682 2.51374 4.84146 2.77896 4.84146ZM1.17896 9.00846C1.37674 9.00846 1.57008 9.06711 1.73453 9.17699C1.89897 9.28688 2.02715 9.44305 2.10283 9.62578C2.17852 9.80851 2.19833 10.0096 2.15974 10.2036C2.12116 10.3975 2.02591 10.5757 1.88606 10.7156C1.74621 10.8554 1.56803 10.9507 1.37405 10.9892C1.18006 11.0278 0.978998 11.008 0.796272 10.9323C0.613546 10.8567 0.457367 10.7285 0.347485 10.564C0.237604 10.3996 0.178955 10.2062 0.178955 10.0085C0.178955 9.74359 0.284037 9.48954 0.471141 9.30206C0.658245 9.11458 0.912085 9.00899 1.17696 9.00846H1.17896Z" fill="#374957"/>
</g>
<defs>
<clipPath id="clip0_357_6405">
<rect width="24" height="24" fill="white"/>
</clipPath>
</defs>
</svg>
