<svg width="24" height="24" viewBox="0 0 24 24" fill="none" xmlns="http://www.w3.org/2000/svg">
<g clip-path="url(#clip0_357_6730)">
<path d="M22.7073 22.7076C22.3173 23.0976 21.6833 23.0976 21.2933 22.7076L19.8793 21.2936L18.4643 22.7076C18.0803 23.1046 17.4473 23.1156 17.0503 22.7326C16.6533 22.3486 16.6423 21.7156 17.0253 21.3186C17.0333 21.3106 17.0413 21.3016 17.0503 21.2936L18.4643 19.8796L17.0503 18.4646C16.6533 18.0806 16.6423 17.4476 17.0253 17.0506C17.4093 16.6536 18.0423 16.6426 18.4393 17.0256C18.4473 17.0336 18.4563 17.0416 18.4643 17.0506L19.8793 18.4646L21.2933 17.0506C21.6773 16.6536 22.3103 16.6426 22.7073 17.0256C23.1043 17.4096 23.1153 18.0426 22.7323 18.4396C22.7243 18.4476 22.7163 18.4566 22.7073 18.4646L21.2933 19.8796L22.7073 21.2936C23.0993 21.6826 23.1043 22.3126 22.7153 22.7046C22.7133 22.7066 22.7123 22.7086 22.7073 22.7076Z" fill="#374957"/>
<path d="M14.0352 20.0149C14.0312 16.7179 16.7002 14.0419 19.9962 14.0369C21.2792 14.0349 22.5292 14.4469 23.5592 15.2119C25.3322 8.82691 21.5932 2.21391 15.2092 0.440912C8.82523 -1.33209 2.21323 2.40591 0.440231 8.79091C-1.33277 15.1759 2.40623 21.7899 8.79023 23.5629C10.8902 24.1459 13.1092 24.1459 15.2092 23.5629C14.4472 22.5369 14.0352 21.2929 14.0352 20.0149ZM13.0002 12.0219C13.0002 12.2879 12.8942 12.5419 12.7062 12.7299L9.70123 15.7359C9.30323 16.1199 8.66923 16.1089 8.28523 15.7109C7.91023 15.3229 7.91023 14.7069 8.28523 14.3189L10.9972 11.6069V7.01291C10.9972 6.45991 11.4452 6.01091 11.9992 6.01091C12.5522 6.01091 13.0002 6.45991 13.0002 7.01291V12.0219Z" fill="#374957"/>
</g>
<defs>
<clipPath id="clip0_357_6730">
<rect width="24" height="24" fill="white"/>
</clipPath>
</defs>
</svg>
