<svg width="24" height="24" viewBox="0 0 24 24" fill="none" xmlns="http://www.w3.org/2000/svg">
<g clip-path="url(#clip0_357_6529)">
<path d="M6.99998 22H4.99997C3.34312 22 1.99997 20.6568 1.99997 19V5.00002C1.99997 3.34317 3.34312 2.00002 4.99997 2.00002H6.99998C7.55227 2.00002 7.99997 1.55231 7.99997 1.00003C7.99997 0.44775 7.55227 0 6.99998 0H4.99997C2.23997 0.00332812 0.00332812 2.23997 0 5.00002V19C0.00332812 21.76 2.23997 23.9967 5.00002 24H7.00003C7.55231 24 8.00002 23.5523 8.00002 23C8.00002 22.4477 7.55227 22 6.99998 22Z" fill="#374957"/>
<path d="M23.0003 11.0005L7.2233 11.0325C7.31101 10.8696 7.42069 10.7195 7.54932 10.5865L11.4283 6.70745C11.8256 6.32378 11.8366 5.69069 11.4529 5.29347C11.0693 4.8962 10.4362 4.88519 10.0389 5.26886C10.0306 5.27692 10.0224 5.28512 10.0143 5.29347L6.13332 9.17247C4.57177 10.7345 4.57177 13.2665 6.13332 14.8285L10.0123 18.7075C10.396 19.1047 11.0291 19.1157 11.4263 18.732C11.8236 18.3483 11.8345 17.7152 11.4509 17.318C11.4428 17.3097 11.4346 17.3015 11.4263 17.2935L7.5473 13.4145C7.43537 13.2992 7.33768 13.171 7.2563 13.0325L23.0003 13.0005C23.5526 13.0005 24.0003 12.5528 24.0003 12.0005C24.0003 11.4482 23.5526 11.0005 23.0003 11.0005Z" fill="#374957"/>
</g>
<defs>
<clipPath id="clip0_357_6529">
<rect width="24" height="24" fill="white"/>
</clipPath>
</defs>
</svg>
