<svg width="24" height="24" viewBox="0 0 24 24" fill="none" xmlns="http://www.w3.org/2000/svg">
<g clip-path="url(#clip0_357_6539)">
<path d="M14.9999 23.9997C13.3194 23.9985 11.6578 23.6448 10.1225 22.9617C8.58707 22.2786 7.21197 21.2811 6.08591 20.0337C4.95134 18.7849 4.09532 17.309 3.57465 15.704C3.05399 14.0991 2.88057 12.4018 3.06591 10.7247C3.36471 8.11473 4.50331 5.67245 6.31027 3.76557C8.11724 1.85869 10.4948 0.590426 13.0849 0.151721C14.7593 -0.106905 16.4681 -0.0372776 18.1159 0.356721C18.5474 0.46758 18.9414 0.691725 19.2572 1.00596C19.573 1.3202 19.7991 1.71311 19.9121 2.14404C20.025 2.57498 20.0208 3.02827 19.8998 3.45703C19.7789 3.88578 19.5455 4.27442 19.2239 4.58272C14.6639 8.74872 15.0599 15.2267 20.0309 18.9927C20.3824 19.2686 20.6535 19.6336 20.8161 20.0498C20.9786 20.466 21.0267 20.9181 20.9552 21.3592C20.8837 21.8003 20.6954 22.2141 20.4097 22.5577C20.124 22.9012 19.7515 23.162 19.3309 23.3127C17.9327 23.7695 16.4708 24.0014 14.9999 23.9997Z" fill="#374957"/>
</g>
<defs>
<clipPath id="clip0_357_6539">
<rect width="24" height="24" fill="white"/>
</clipPath>
</defs>
</svg>
