<svg width="24" height="24" viewBox="0 0 24 24" fill="none" xmlns="http://www.w3.org/2000/svg">
<g clip-path="url(#clip0_357_6449)">
<path d="M3.75691e-05 11.986C-0.0101686 14.5504 2.06043 16.6376 4.62486 16.6478C5.80587 16.6524 6.94433 16.2069 7.80844 15.4018L14.7279 18.526C14.6798 18.7847 14.6535 19.047 14.649 19.3101C14.6409 21.8922 16.7274 23.9919 19.3095 24.0001C21.8916 24.0083 23.9913 21.9217 23.9995 19.3397C24.0077 16.7576 21.9212 14.6578 19.3391 14.6496C17.7964 14.6448 16.3506 15.4012 15.475 16.6713L8.97401 13.7359C9.43577 12.6209 9.43755 11.3685 8.97902 10.2522L15.4711 7.30177C16.9329 9.41609 19.832 9.94494 21.9463 8.48307C24.0607 7.02119 24.5895 4.12216 23.1276 2.00784C21.6657 -0.106488 18.7666 -0.635338 16.6523 0.826538C15.3932 1.69716 14.6426 3.13122 14.645 4.66206C14.6492 4.92555 14.676 5.18815 14.7249 5.4471L7.82343 8.58321C5.95358 6.82741 3.01443 6.91988 1.25863 8.78972C0.446021 9.65519 -0.00436327 10.7989 3.75691e-05 11.986Z" fill="#374957"/>
</g>
<defs>
<clipPath id="clip0_357_6449">
<rect width="24" height="24" fill="white"/>
</clipPath>
</defs>
</svg>
