<svg width="24" height="24" viewBox="0 0 24 24" fill="none" xmlns="http://www.w3.org/2000/svg">
<g clip-path="url(#clip0_357_6568)">
<path d="M24 19.9994C24 20.5514 23.552 20.9994 23 20.9994H21V22.9994C21 23.5514 20.552 23.9994 20 23.9994C19.448 23.9994 19 23.5514 19 22.9994V20.9994H17C16.448 20.9994 16 20.5514 16 19.9994C16 19.4474 16.448 18.9994 17 18.9994H19V16.9994C19 16.4474 19.448 15.9994 20 15.9994C20.552 15.9994 21 16.4474 21 16.9994V18.9994H23C23.552 18.9994 24 19.4474 24 19.9994Z" fill="#374957"/>
<path d="M14.0352 20.0149C14.0312 16.7179 16.7002 14.0419 19.9962 14.0369C21.2792 14.0349 22.5292 14.4469 23.5592 15.2119C25.3322 8.82691 21.5932 2.21391 15.2092 0.440912C8.82523 -1.33209 2.21323 2.40591 0.440231 8.79091C-1.33277 15.1759 2.40623 21.7899 8.79023 23.5629C10.8902 24.1459 13.1092 24.1459 15.2092 23.5629C14.4472 22.5369 14.0352 21.2929 14.0352 20.0149ZM13.0002 12.0219C13.0002 12.2879 12.8942 12.5419 12.7062 12.7299L9.70123 15.7359C9.30323 16.1199 8.66923 16.1089 8.28523 15.7109C7.91023 15.3229 7.91023 14.7069 8.28523 14.3189L10.9972 11.6069V7.01291C10.9972 6.45991 11.4452 6.01091 11.9992 6.01091C12.5522 6.01091 13.0002 6.45991 13.0002 7.01291V12.0219Z" fill="#374957"/>
</g>
<defs>
<clipPath id="clip0_357_6568">
<rect width="24" height="24" fill="white"/>
</clipPath>
</defs>
</svg>
