<svg width="24" height="24" viewBox="0 0 24 24" fill="none" xmlns="http://www.w3.org/2000/svg">
<g clip-path="url(#clip0_357_6485)">
<path d="M23.4209 16.5822L20.1299 13.2912C20.0381 13.1935 19.9277 13.1152 19.8052 13.0611C19.6826 13.0069 19.5504 12.9779 19.4164 12.9758C19.2825 12.9737 19.1494 12.9986 19.0252 13.049C18.9011 13.0993 18.7883 13.1741 18.6936 13.2689C18.5988 13.3636 18.5241 13.4765 18.4739 13.6007C18.4236 13.7249 18.3989 13.858 18.401 13.9919C18.4032 14.1259 18.4323 14.2581 18.4866 14.3806C18.5408 14.5031 18.6191 14.6135 18.7169 14.7052L21.0069 16.9992C19.762 17.002 18.5292 16.7557 17.3809 16.2748C16.2327 15.794 15.1922 15.0882 14.3209 14.1992C14.2241 14.1101 14.1104 14.0413 13.9866 13.997C13.8628 13.9526 13.7313 13.9336 13.5999 13.9411C13.4686 13.9486 13.3401 13.9823 13.2221 14.0404C13.1041 14.0985 12.9989 14.1797 12.9129 14.2792L12.8999 14.2992C12.7318 14.4947 12.6457 14.7477 12.6597 15.0052C12.6736 15.2628 12.7866 15.5049 12.9749 15.6812C14.0247 16.7429 15.2765 17.5835 16.6566 18.1533C18.0366 18.7232 19.5168 19.0108 21.0099 18.9992L18.7169 21.2922C18.6124 21.382 18.5276 21.4925 18.4679 21.6167C18.4081 21.7409 18.3747 21.8761 18.3696 22.0138C18.3646 22.1516 18.3881 22.2888 18.4387 22.4171C18.4892 22.5453 18.5657 22.6617 18.6634 22.7589C18.761 22.8562 18.8777 22.9322 19.0062 22.9822C19.1346 23.0322 19.272 23.0551 19.4097 23.0495C19.5474 23.0439 19.6824 23.0098 19.8064 22.9496C19.9303 22.8893 20.0404 22.804 20.1299 22.6992L23.4209 19.4082C23.7952 19.0332 24.0054 18.525 24.0054 17.9952C24.0054 17.4653 23.7952 16.9571 23.4209 16.5822Z" fill="#374957"/>
<path d="M21.0071 6.99959L18.7171 9.28959C18.6976 9.31592 18.6796 9.34329 18.6631 9.37159C18.5017 9.56835 18.4221 9.81958 18.4408 10.0734C18.4594 10.3271 18.5749 10.5641 18.7633 10.7351C18.9516 10.9062 19.1986 10.9983 19.453 10.9924C19.7074 10.9866 19.9498 10.8832 20.1301 10.7036L21.8361 8.99959L23.4221 7.41459C23.6902 7.14435 23.8757 6.80319 23.9566 6.43119C24.0376 6.0592 24.0107 5.67183 23.8791 5.31459C23.7819 5.04114 23.6255 4.79254 23.4211 4.58659L20.1301 1.29959C20.0388 1.2004 19.9284 1.1207 19.8055 1.06526C19.6826 1.00983 19.5498 0.979814 19.415 0.977021C19.2802 0.974229 19.1463 0.998717 19.0212 1.04901C18.8961 1.09931 18.7825 1.17438 18.6872 1.2697C18.5919 1.36502 18.5168 1.47864 18.4665 1.60371C18.4162 1.72879 18.3917 1.86274 18.3945 1.99752C18.3973 2.1323 18.4273 2.26512 18.4827 2.38801C18.5382 2.51089 18.6179 2.6213 18.7171 2.71259L21.0101 5.00459C16.0771 5.01659 13.3731 7.67859 10.9211 10.4786C8.66909 7.93659 6.0001 5.39959 1.4871 5.04559L1.0061 4.99959C0.740886 4.99959 0.486533 5.10495 0.298996 5.29249C0.11146 5.48002 0.00610352 5.73438 0.00610352 5.99959C0.0112237 6.26321 0.118224 6.5146 0.304662 6.70104C0.4911 6.88747 0.742489 6.99447 1.0061 6.99959C1.0781 6.99959 1.2931 7.03259 1.2931 7.03259C5.1891 7.32759 7.4251 9.52159 9.60009 11.9996C7.4381 14.4656 5.2171 16.6996 1.3531 16.9596L0.953102 16.9806C0.689875 16.997 0.443961 17.1174 0.269459 17.3151C0.0949567 17.5129 0.00616009 17.7719 0.0226035 18.0351C0.0390469 18.2983 0.159383 18.5442 0.35714 18.7187C0.554897 18.8932 0.813875 18.982 1.0771 18.9656C1.2331 18.9586 1.4871 18.9526 1.6121 18.9426C6.6321 18.5556 9.35509 15.3426 11.7831 12.5336C14.2351 9.69959 16.5511 7.01759 21.0071 6.99959Z" fill="#374957"/>
</g>
<defs>
<clipPath id="clip0_357_6485">
<rect width="24" height="24" fill="white"/>
</clipPath>
</defs>
</svg>
