<svg width="24" height="24" viewBox="0 0 24 24" fill="none" xmlns="http://www.w3.org/2000/svg">
<g clip-path="url(#clip0_357_6506)">
<path d="M23.8 8.15565L20.387 18.5557C20.1717 19.2789 19.7938 19.9433 19.2821 20.498C18.7704 21.0527 18.1386 21.4829 17.435 21.7557C17.8087 20.8849 18.001 19.9472 18 18.9997V8.99965C17.9979 7.14379 17.2597 5.36454 15.9474 4.05224C14.6351 2.73995 12.8559 2.00177 11 1.99965H9.335C9.9525 1.18278 10.8052 0.574475 11.7786 0.256455C12.7519 -0.0615648 13.7993 -0.0740584 14.78 0.220653L20.466 1.96665C21.7212 2.35659 22.7735 3.22318 23.3968 4.38034C24.0202 5.5375 24.1649 6.89295 23.8 8.15565ZM16 8.99965V18.9997C15.9984 20.3252 15.4711 21.5961 14.5338 22.5334C13.5964 23.4708 12.3256 23.9981 11 23.9997H5C3.67441 23.9981 2.40356 23.4708 1.46622 22.5334C0.528882 21.5961 0.00158786 20.3252 0 18.9997L0 8.99965C0.00158786 7.67406 0.528882 6.40321 1.46622 5.46587C2.40356 4.52853 3.67441 4.00124 5 3.99965H11C12.3256 4.00124 13.5964 4.52853 14.5338 5.46587C15.4711 6.40321 15.9984 7.67406 16 8.99965ZM12 12.9997C12 12.4692 11.7893 11.9605 11.4142 11.5854C11.0391 11.2104 10.5304 10.9997 10 10.9997C9.46957 10.9997 8.96086 11.2104 8.58579 11.5854C8.21071 11.9605 8 12.4692 8 12.9997C8 12.4692 7.78929 11.9605 7.41421 11.5854C7.03914 11.2104 6.53043 10.9997 6 10.9997C5.46957 10.9997 4.96086 11.2104 4.58579 11.5854C4.21071 11.9605 4 12.4692 4 12.9997C4 14.4497 5.544 16.3907 6.714 17.3777C7.07348 17.6818 7.52912 17.8487 8 17.8487C8.47088 17.8487 8.92652 17.6818 9.286 17.3777C10.456 16.3907 12 14.4497 12 12.9997Z" fill="#374957"/>
</g>
<defs>
<clipPath id="clip0_357_6506">
<rect width="24" height="24" fill="white"/>
</clipPath>
</defs>
</svg>
