<svg width="24" height="24" viewBox="0 0 24 24" fill="none" xmlns="http://www.w3.org/2000/svg">
<g clip-path="url(#clip0_357_6452)">
<path d="M23.7198 22.3082L17.7594 16.3478C21.2558 12.0715 20.6237 5.77051 16.3474 2.27406C12.0711 -1.22239 5.77015 -0.590236 2.27369 3.68603C-1.22276 7.9623 -0.590602 14.2633 3.68566 17.7597C7.36901 20.7714 12.6641 20.7714 16.3474 17.7597L22.3078 23.7201C22.7045 24.1032 23.3366 24.0923 23.7198 23.6956C24.0935 23.3086 24.0935 22.6952 23.7198 22.3082ZM11.2767 14.6652C10.5486 15.2451 9.5164 15.2451 8.78829 14.6652C7.07777 13.2912 5.03969 11.2311 5.03969 9.23401C4.98865 7.52594 6.32759 6.09775 8.03538 6.03864C8.78135 6.04201 9.49708 6.334 10.0325 6.85347C10.5679 6.33404 11.2836 6.04201 12.0296 6.03864C13.7374 6.0978 15.0763 7.52598 15.0253 9.23401C15.0253 11.2311 12.9873 13.2912 11.2767 14.6652ZM13.0282 9.23401C13.0282 10.1327 11.8778 11.6206 10.0385 13.1084C8.18716 11.6206 7.0368 10.1327 7.0368 9.23401C6.98698 8.62905 7.4313 8.09579 8.03538 8.03575C8.63941 8.09579 9.08379 8.62905 9.03396 9.23401C9.03396 9.7855 9.48101 10.2326 10.0325 10.2326C10.584 10.2326 11.0311 9.78555 11.0311 9.23401C10.9813 8.62905 11.4256 8.09579 12.0297 8.03575C12.6337 8.09579 13.078 8.62905 13.0282 9.23401Z" fill="#374957"/>
</g>
<defs>
<clipPath id="clip0_357_6452">
<rect width="24" height="24" fill="white"/>
</clipPath>
</defs>
</svg>
