<svg width="24" height="24" viewBox="0 0 24 24" fill="none" xmlns="http://www.w3.org/2000/svg">
<g clip-path="url(#clip0_357_6414)">
<path d="M18.9508 23.0008H18.9178C18.4068 22.9928 17.9208 22.7758 17.5738 22.4008L15.6558 20.5198C15.2718 20.1228 15.2808 19.4898 15.6778 19.1058C15.6788 19.1048 15.6798 19.1038 15.6808 19.1028C16.0778 18.7218 16.7078 18.7328 17.0908 19.1268L18.9518 20.9498L22.2928 17.6088C22.6828 17.2188 23.3168 17.2188 23.7068 17.6088C24.0968 17.9988 24.0968 18.6328 23.7068 19.0228L20.2858 22.4438C19.9338 22.8008 19.4528 23.0018 18.9508 23.0008Z" fill="#374957"/>
<path d="M14.0352 20.0149C14.0312 16.7179 16.7002 14.0419 19.9962 14.0369C21.2792 14.0349 22.5292 14.4469 23.5592 15.2119C25.3322 8.82691 21.5932 2.21391 15.2092 0.440912C8.82523 -1.33209 2.21323 2.40591 0.440231 8.79091C-1.33277 15.1759 2.40623 21.7899 8.79023 23.5629C10.8902 24.1459 13.1092 24.1459 15.2092 23.5629C14.4472 22.5369 14.0352 21.2929 14.0352 20.0149ZM13.0002 12.0219C13.0002 12.2879 12.8942 12.5419 12.7062 12.7299L9.70123 15.7359C9.30323 16.1199 8.66923 16.1089 8.28523 15.7109C7.91023 15.3229 7.91023 14.7069 8.28523 14.3189L10.9972 11.6069V7.01291C10.9972 6.45991 11.4452 6.01091 11.9992 6.01091C12.5522 6.01091 13.0002 6.45991 13.0002 7.01291V12.0219Z" fill="#374957"/>
</g>
<defs>
<clipPath id="clip0_357_6414">
<rect width="24" height="24" fill="white"/>
</clipPath>
</defs>
</svg>
