<svg width="24" height="24" viewBox="0 0 24 24" fill="none" xmlns="http://www.w3.org/2000/svg">
<g clip-path="url(#clip0_357_6689)">
<path d="M22.0002 12V5C21.9987 3.67441 21.4714 2.40356 20.534 1.46622C19.5967 0.528882 18.3258 0.00158786 17.0002 0L7.00024 0C5.67465 0.00158786 4.4038 0.528882 3.46646 1.46622C2.52913 2.40356 2.00183 3.67441 2.00024 5V12H22.0002Z" fill="#374957"/>
<path d="M23 13.9996H1C0.734784 13.9996 0.48043 14.105 0.292893 14.2925C0.105357 14.4801 0 14.7344 0 14.9996C0 15.2648 0.105357 15.5192 0.292893 15.7067C0.48043 15.8943 0.734784 15.9996 1 15.9996H11V19.9996H9C8.20435 19.9996 7.44129 20.3157 6.87868 20.8783C6.31607 21.4409 6 22.204 6 22.9996C6 23.2648 6.10536 23.5192 6.29289 23.7067C6.48043 23.8942 6.73478 23.9996 7 23.9996C7.26522 23.9996 7.51957 23.8942 7.70711 23.7067C7.89464 23.5192 8 23.2648 8 22.9996C8 22.7344 8.10536 22.48 8.29289 22.2925C8.48043 22.105 8.73478 21.9996 9 21.9996H15C15.2652 21.9996 15.5196 22.105 15.7071 22.2925C15.8946 22.48 16 22.7344 16 22.9996C16 23.2648 16.1054 23.5192 16.2929 23.7067C16.4804 23.8942 16.7348 23.9996 17 23.9996C17.2652 23.9996 17.5196 23.8942 17.7071 23.7067C17.8946 23.5192 18 23.2648 18 22.9996C18 22.204 17.6839 21.4409 17.1213 20.8783C16.5587 20.3157 15.7956 19.9996 15 19.9996H13V15.9996H23C23.2652 15.9996 23.5196 15.8943 23.7071 15.7067C23.8946 15.5192 24 15.2648 24 14.9996C24 14.7344 23.8946 14.4801 23.7071 14.2925C23.5196 14.105 23.2652 13.9996 23 13.9996Z" fill="#374957"/>
</g>
<defs>
<clipPath id="clip0_357_6689">
<rect width="24" height="24" fill="white"/>
</clipPath>
</defs>
</svg>
