<svg width="24" height="24" viewBox="0 0 24 24" fill="none" xmlns="http://www.w3.org/2000/svg">
<g clip-path="url(#clip0_357_6718)">
<path d="M22.5629 1.43729C20.1889 -0.93671 16.6439 -0.35771 11.9999 3.13729C7.35687 -0.35771 3.81287 -0.93771 1.43687 1.43729C-0.939135 3.81228 -0.358135 7.35628 3.13687 12.0003C-0.358135 16.6433 -0.938135 20.1883 1.43687 22.5633C1.88216 23.025 2.41726 23.3907 3.00921 23.6378C3.60117 23.885 4.23744 24.0083 4.87887 24.0003C6.84987 24.0003 9.22987 22.9483 11.9999 20.8643C14.7689 22.9483 17.1489 24.0003 19.1209 24.0003C19.7623 24.0083 20.3986 23.885 20.9905 23.6378C21.5825 23.3907 22.1176 23.025 22.5629 22.5633C24.9379 20.1883 24.3629 16.6443 20.8629 12.0003C24.3579 7.35628 24.9379 3.81228 22.5629 1.43729ZM19.0849 2.02829C19.467 2.01678 19.8475 2.08349 20.2029 2.22433C20.5584 2.36517 20.8813 2.57715 21.1519 2.84729C22.8979 4.59428 21.6079 7.56028 19.5639 10.3863C18.7259 9.39828 17.7819 8.37128 16.7059 7.29428C15.6299 6.21728 14.5999 5.27328 13.6119 4.43428C15.5099 3.06129 17.4719 2.02829 19.0849 2.02829ZM18.3109 12.0003C17.2999 13.2203 16.2289 14.3613 15.2949 15.3003C14.3609 16.2393 13.2199 17.3003 11.9999 18.3113C10.7799 17.3003 9.63887 16.2293 8.70487 15.3003C7.77087 14.3713 6.69987 13.2203 5.68887 12.0003C6.69987 10.7803 7.77087 9.63828 8.70487 8.70528C9.63887 7.77228 10.7799 6.70028 11.9999 5.68828C13.2199 6.69828 14.3609 7.77128 15.2999 8.70528C16.2389 9.63928 17.2999 10.7803 18.3109 12.0003ZM2.84787 2.84829C3.11813 2.57769 3.44097 2.36532 3.79647 2.22429C4.15197 2.08326 4.53259 2.01656 4.91487 2.02829C6.52787 2.02829 8.48987 3.06129 10.3879 4.43428C9.39987 5.27328 8.37187 6.21728 7.29387 7.29428C6.21587 8.37128 5.27387 9.39428 4.43487 10.3863C2.39187 7.56028 1.09987 4.59428 2.84787 2.84829ZM2.84787 21.1483C1.10187 19.4023 2.39187 16.4353 4.43487 13.6103C5.27387 14.5983 6.21787 15.6253 7.29387 16.7023C8.36987 17.7793 9.39387 18.7253 10.3829 19.5633C7.55787 21.6093 4.59187 22.9003 2.84787 21.1523V21.1483ZM21.1479 21.1483C19.4029 22.8923 16.4379 21.6053 13.6129 19.5633C14.5989 18.7253 15.6269 17.7763 16.7019 16.7023C17.7769 15.6283 18.7219 14.6023 19.5599 13.6103C21.6079 16.4403 22.8999 19.4063 21.1519 21.1523L21.1479 21.1483Z" fill="#374957"/>
<path d="M11.9998 14.0002C13.1043 14.0002 13.9997 13.1048 13.9997 12.0002C13.9997 10.8957 13.1043 10.0002 11.9998 10.0002C10.8952 10.0002 9.99976 10.8957 9.99976 12.0002C9.99976 13.1048 10.8952 14.0002 11.9998 14.0002Z" fill="#374957"/>
</g>
<defs>
<clipPath id="clip0_357_6718">
<rect width="24" height="24" fill="white"/>
</clipPath>
</defs>
</svg>
