<svg width="24" height="24" viewBox="0 0 24 24" fill="none" xmlns="http://www.w3.org/2000/svg">
<g clip-path="url(#clip0_357_6629)">
<path d="M23.351 0.648362C23.0559 0.350047 22.6812 0.142886 22.2716 0.0515755C21.8621 -0.0397355 21.4349 -0.0113453 21.041 0.133362L20.825 0.210362C15.9881 1.78361 11.5845 4.46286 7.964 8.03536C7.05539 8.96799 6.22867 9.97704 5.493 11.0514C4.093 13.0514 3.827 15.2404 5.547 16.9614L5.586 16.9994L3.293 19.2924C3.10553 19.4799 3.00021 19.7342 3.00021 19.9994C3.00021 20.2645 3.10553 20.5188 3.293 20.7064C3.48053 20.8938 3.73484 20.9991 4 20.9991C4.26516 20.9991 4.51947 20.8938 4.707 20.7064L7 18.4134L7.038 18.4524C8.759 20.1724 10.953 19.9044 12.948 18.5064C14.0223 17.7707 15.0314 16.944 15.964 16.0354C19.5366 12.4145 22.2159 8.01065 23.789 3.17336L23.866 2.95736C24.0107 2.56365 24.0392 2.1366 23.9478 1.72718C23.8565 1.31775 23.6493 0.943253 23.351 0.648362ZM11 13.9994C10.8022 13.9994 10.6089 13.9407 10.4444 13.8308C10.28 13.721 10.1518 13.5648 10.0761 13.382C10.0004 13.1993 9.98063 12.9983 10.0192 12.8043C10.0578 12.6103 10.153 12.4321 10.2929 12.2923C10.4327 12.1524 10.6109 12.0572 10.8049 12.0186C10.9989 11.98 11.2 11.9998 11.3827 12.0755C11.5654 12.1512 11.7216 12.2793 11.8315 12.4438C11.9414 12.6082 12 12.8016 12 12.9994C12 13.2646 11.8946 13.5189 11.7071 13.7065C11.5196 13.894 11.2652 13.9994 11 13.9994ZM14 10.9994C13.8022 10.9994 13.6089 10.9407 13.4444 10.8308C13.28 10.721 13.1518 10.5648 13.0761 10.382C13.0004 10.1993 12.9806 9.99825 13.0192 9.80427C13.0578 9.61029 13.153 9.43211 13.2929 9.29226C13.4327 9.1524 13.6109 9.05716 13.8049 9.01858C13.9989 8.97999 14.2 8.9998 14.3827 9.07548C14.5654 9.15117 14.7216 9.27934 14.8315 9.44379C14.9414 9.60824 15 9.80158 15 9.99936C15 10.2646 14.8946 10.5189 14.7071 10.7065C14.5196 10.894 14.2652 10.9994 14 10.9994ZM17 7.99936C16.8022 7.99936 16.6089 7.94071 16.4444 7.83083C16.28 7.72095 16.1518 7.56477 16.0761 7.38205C16.0004 7.19932 15.9806 6.99825 16.0192 6.80427C16.0578 6.61029 16.153 6.43211 16.2929 6.29226C16.4327 6.1524 16.6109 6.05716 16.8049 6.01858C16.9989 5.97999 17.2 5.9998 17.3827 6.07548C17.5654 6.15117 17.7216 6.27934 17.8315 6.44379C17.9414 6.60824 18 6.80158 18 6.99936C18 7.26458 17.8946 7.51893 17.7071 7.70647C17.5196 7.89401 17.2652 7.99936 17 7.99936ZM2.363 13.0374C2.05273 13.0375 1.74548 12.9765 1.45879 12.8579C1.17211 12.7392 0.911605 12.5652 0.692167 12.3459C0.472729 12.1266 0.298656 11.8661 0.179892 11.5795C0.061128 11.2929 -2.78064e-08 10.9856 0 10.6754C0.00241739 10.0594 0.240336 9.4676 0.665 9.02136C2.37335 7.26522 4.67884 6.21454 7.125 6.07736C6.934 6.25936 6.739 6.43236 6.55 6.62136C5.55966 7.63502 4.65803 8.7317 3.855 9.89936C3.17969 10.835 2.70945 11.9026 2.475 13.0324L2.363 13.0374ZM11 21.5244C12.1299 21.2903 13.1976 20.8201 14.133 20.1444C15.3026 19.3418 16.401 18.4402 17.416 17.4494C17.606 17.2604 17.778 17.0654 17.961 16.8744C17.823 19.3205 16.772 21.6258 15.016 23.3344C14.5702 23.7591 13.9787 23.997 13.363 23.9994C12.7363 23.9994 12.1353 23.7504 11.6921 23.3073C11.249 22.8641 11 22.2631 11 21.6364V21.5244Z" fill="#374957"/>
</g>
<defs>
<clipPath id="clip0_357_6629">
<rect width="24" height="24" fill="white"/>
</clipPath>
</defs>
</svg>
