<svg width="24" height="24" viewBox="0 0 24 24" fill="none" xmlns="http://www.w3.org/2000/svg">
<g clip-path="url(#clip0_357_6855)">
<path d="M12.9998 23.9991C11.4089 23.9975 9.88374 23.3649 8.75887 22.24C7.634 21.1151 7.00134 19.5899 6.99976 17.9991C6.99976 16.4391 8.19976 13.9541 10.5518 10.6111C10.831 10.2221 11.1989 9.90522 11.6249 9.68662C12.0509 9.46802 12.5229 9.354 13.0018 9.354C13.4806 9.354 13.9526 9.46802 14.3786 9.68662C14.8046 9.90522 15.1725 10.2221 15.4518 10.6111C17.8048 13.9541 18.9998 16.4391 18.9998 17.9991C18.9982 19.5899 18.3655 21.1151 17.2406 22.24C16.1158 23.3649 14.5906 23.9975 12.9998 23.9991Z" fill="#374957"/>
<path d="M5 11C3.67441 10.9984 2.40356 10.4711 1.46622 9.5338C0.528882 8.59646 0.00158786 7.32561 0 6.00002C0 4.74002 0.842 3.14502 2.574 1.12302C2.87441 0.773767 3.24669 0.493497 3.66538 0.301364C4.08408 0.109231 4.53932 0.00976563 5 0.00976562C5.46068 0.00976563 5.91592 0.109231 6.33462 0.301364C6.75331 0.493497 7.12559 0.773767 7.426 1.12302C9.158 3.14302 10 4.73802 10 6.00002C9.99841 7.32561 9.47112 8.59646 8.53378 9.5338C7.59644 10.4711 6.32559 10.9984 5 11Z" fill="#374957"/>
<path d="M19.5 9.96404C18.3069 9.96272 17.1631 9.48819 16.3195 8.64456C15.4759 7.80093 15.0013 6.65711 15 5.46404C15 4.37304 15.7 2.95804 17.146 1.13804C17.429 0.785899 17.7874 0.501738 18.1948 0.306491C18.6022 0.111245 19.0482 0.0098877 19.5 0.0098877C19.9518 0.0098877 20.3978 0.111245 20.8052 0.306491C21.2126 0.501738 21.571 0.785899 21.854 1.13804C23.3 2.95804 24 4.37304 24 5.46404C23.9987 6.65711 23.5241 7.80093 22.6805 8.64456C21.8369 9.48819 20.6931 9.96272 19.5 9.96404Z" fill="#374957"/>
</g>
<defs>
<clipPath id="clip0_357_6855">
<rect width="24" height="24" fill="white"/>
</clipPath>
</defs>
</svg>
